<svg xmlns="http://www.w3.org/2000/svg" xmlns:xlink="http://www.w3.org/1999/xlink" width="1439.254" height="768" viewBox="0 0 1439.254 768"><defs><style>.a{fill:#0a0a19;}.b{clip-path:url(#a);}.c,.d,.e,.f,.g,.h,.i,.j,.k,.l,.m,.n,.o,.p,.r{fill:none;}.c,.n{stroke:#464657;}.c,.d,.e,.f,.l,.n,.o{stroke-width:2px;}.c,.k{opacity:0.16;}.d,.e,.f,.l,.o,.p{stroke:#3c3c4b;}.d{opacity:0.15;}.e{opacity:0.09;}.f{opacity:0.06;}.g{stroke:rgba(80,80,96,0.61);}.h,.j,.k,.m{stroke:#505060;}.i{stroke:#8d8db7;opacity:0.7;}.j{opacity:0.2;}.l,.p{opacity:0.4;}.m{opacity:0.3;}.n{opacity:0.11;}.o{opacity:0.13;}.p{stroke-width:7px;}.q{stroke:none;}</style><clipPath id="a"><rect class="a" width="1366" height="768"/></clipPath></defs><g class="b" transform="translate(48.361)"><g transform="translate(30.74 91.069)"><g class="c" transform="matrix(0.799, -0.602, 0.602, 0.799, 526.273, 280.648)"><rect class="q" width="393.669" height="393.669"/><rect class="r" x="1" y="1" width="391.669" height="391.669"/></g><g class="d" transform="translate(1247.13 141.985) rotate(100)"><rect class="q" width="91.236" height="91.236"/><rect class="r" x="1" y="1" width="89.236" height="89.236"/></g><g class="e" transform="translate(1258.221 461.616) rotate(172)"><rect class="q" width="290.236" height="290.236"/><rect class="r" x="1" y="1" width="288.236" height="288.236"/></g><g class="f" transform="translate(736.987 460.845) rotate(45)"><rect class="q" width="219.189" height="219.189"/><rect class="r" x="1" y="1" width="217.189" height="217.189"/></g><g class="g" transform="matrix(0.719, 0.695, -0.695, 0.719, 542.114, 462.81)"><rect class="q" width="55.445" height="55.445"/><rect class="r" x="0.5" y="0.5" width="54.445" height="54.445"/></g><g class="h" transform="matrix(-0.819, 0.574, -0.574, -0.819, 958.375, 616.994)"><rect class="q" width="9.445" height="9.445"/><rect class="r" x="0.5" y="0.5" width="8.445" height="8.445"/></g><g class="i" transform="translate(820.211 103.354) rotate(16)"><rect class="q" width="207.748" height="207.748"/><rect class="r" x="0.5" y="0.5" width="206.748" height="206.748"/></g><g class="j" transform="translate(827.918 -0.587) rotate(170)"><rect class="q" width="78.493" height="78.493"/><rect class="r" x="0.5" y="0.5" width="77.493" height="77.493"/></g><g class="k" transform="translate(875.238 382.125) rotate(170)"><rect class="q" width="71.693" height="71.693"/><rect class="r" x="0.5" y="0.5" width="70.693" height="70.693"/></g><g class="j" transform="matrix(0.719, 0.695, -0.695, 0.719, 291.375, -50.86)"><rect class="q" width="26.078" height="26.078"/><rect class="r" x="0.5" y="0.5" width="25.078" height="25.078"/></g><g class="l" transform="translate(543.761 205.816) rotate(-72)"><rect class="q" width="121.594" height="121.594"/><rect class="r" x="1" y="1" width="119.594" height="119.594"/></g><g class="l" transform="matrix(0.719, 0.695, -0.695, 0.719, 1391.869, -11.942)"><rect class="q" width="146.459" height="146.459"/><rect class="r" x="1" y="1" width="144.459" height="144.459"/></g><g class="m" transform="translate(957.399 39.472) rotate(168)"><rect class="q" width="9.445" height="9.445"/><rect class="r" x="0.5" y="0.5" width="8.445" height="8.445"/></g></g><g transform="translate(-867.675 -382.393)"><g class="n" transform="matrix(0.799, -0.602, 0.602, 0.799, 866.7, 763.055)"><rect class="q" width="923.346" height="923.346"/><rect class="r" x="1" y="1" width="921.346" height="921.346"/></g><g class="o" transform="matrix(0.087, 0.996, -0.996, 0.087, 2476.503, 853.922)"><rect class="q" width="514.105" height="514.105"/><rect class="r" x="1" y="1" width="512.105" height="512.105"/></g><g class="h" transform="matrix(0.719, 0.695, -0.695, 0.719, 840.295, 1251.359)"><rect class="q" width="130.045" height="130.045"/><rect class="r" x="0.5" y="0.5" width="129.045" height="129.045"/></g><g class="h" transform="translate(1574.205 103.419) rotate(170)"><rect class="q" width="184.104" height="184.104"/><rect class="r" x="0.5" y="0.5" width="183.104" height="183.104"/></g><g class="h" transform="matrix(0.719, 0.695, -0.695, 0.719, 315.749, -14.494)"><rect class="q" width="61.166" height="61.166"/><rect class="r" x="0.5" y="0.5" width="60.166" height="60.166"/></g><g class="p" transform="matrix(0.719, 0.695, -0.695, 0.719, 2896.948, 76.787)"><rect class="q" width="343.518" height="343.518"/><rect class="r" x="3.5" y="3.5" width="336.518" height="336.518"/></g></g></g><g class="h" transform="translate(1439.254 661.132) rotate(150)"><rect class="q" width="36.445" height="36.445"/><rect class="r" x="0.5" y="0.5" width="35.445" height="35.445"/></g><g class="h" transform="translate(941.59 317.307) rotate(-83)"><rect class="q" width="17.003" height="17.003"/><rect class="r" x="0.5" y="0.5" width="16.003" height="16.003"/></g><g class="h" transform="matrix(0.809, 0.588, -0.588, 0.809, 1155.708, 222.062)"><rect class="q" width="7.003" height="7.003"/><rect class="r" x="0.5" y="0.5" width="6.003" height="6.003"/></g><g class="h" transform="matrix(0.809, 0.588, -0.588, 0.809, 569.708, 231.845)"><rect class="q" width="7.003" height="7.003"/><rect class="r" x="0.5" y="0.5" width="6.003" height="6.003"/></g><g class="h" transform="matrix(0.809, 0.588, -0.588, 0.809, 1336.708, 360.718)"><rect class="q" width="4.003" height="4.003"/><rect class="r" x="0.5" y="0.5" width="3.003" height="3.003"/></g><g class="h" transform="matrix(0.809, 0.588, -0.588, 0.809, 32.708, 584.845)"><rect class="q" width="55.646" height="55.646"/><rect class="r" x="0.5" y="0.5" width="54.646" height="54.646"/></g></svg>