<svg xmlns="http://www.w3.org/2000/svg" xmlns:xlink="http://www.w3.org/1999/xlink" width="1366" height="768" viewBox="0 0 1366 768"><defs><style>.a{fill:#0a0a19;}.b{clip-path:url(#a);}.c{fill:#040416;}.c,.m{stroke:#464657;}.c,.d,.e,.l,.m,.n{stroke-width:2px;}.c,.i{opacity:0.7;}.d,.e,.g{fill:#050516;}.d,.e,.f,.l,.n,.o{stroke:#3c3c4b;}.e,.l,.o{opacity:0.4;}.f,.h,.i,.j,.k,.l,.m,.n,.o,.q{fill:none;}.f,.o{stroke-width:7px;}.f,.k{opacity:0.2;}.g{stroke:rgba(80,80,96,0.61);}.h,.j,.k{stroke:#505060;}.i{stroke:#8d8db7;}.j,.n{opacity:0.5;}.m{opacity:0.3;}.p{stroke:none;}</style><clipPath id="a"><rect class="a" width="1366" height="768"/></clipPath></defs><g class="b"><g transform="translate(30.74 91.069)"><g class="c" transform="matrix(0.799, -0.602, 0.602, 0.799, 526.273, 280.648)"><rect class="p" width="393.669" height="393.669"/><rect class="q" x="1" y="1" width="391.669" height="391.669"/></g><g class="d" transform="translate(1247.13 141.985) rotate(100)"><rect class="p" width="91.236" height="91.236"/><rect class="q" x="1" y="1" width="89.236" height="89.236"/></g><g class="e" transform="translate(1258.221 461.616) rotate(172)"><rect class="p" width="290.236" height="290.236"/><rect class="q" x="1" y="1" width="288.236" height="288.236"/></g><g class="f" transform="translate(736.987 460.845) rotate(45)"><rect class="p" width="219.189" height="219.189"/><rect class="q" x="3.5" y="3.5" width="212.189" height="212.189"/></g><g class="g" transform="matrix(0.719, 0.695, -0.695, 0.719, 542.114, 462.81)"><rect class="p" width="55.445" height="55.445"/><rect class="q" x="0.5" y="0.5" width="54.445" height="54.445"/></g><g class="h" transform="matrix(-0.819, 0.574, -0.574, -0.819, 958.375, 616.994)"><rect class="p" width="9.445" height="9.445"/><rect class="q" x="0.5" y="0.5" width="8.445" height="8.445"/></g><g class="i" transform="translate(820.211 103.354) rotate(16)"><rect class="p" width="207.748" height="207.748"/><rect class="q" x="0.5" y="0.5" width="206.748" height="206.748"/></g><g class="j" transform="translate(827.918 -0.587) rotate(170)"><rect class="p" width="78.493" height="78.493"/><rect class="q" x="0.5" y="0.5" width="77.493" height="77.493"/></g><g class="h" transform="translate(875.238 382.125) rotate(170)"><rect class="p" width="71.693" height="71.693"/><rect class="q" x="0.5" y="0.5" width="70.693" height="70.693"/></g><g class="k" transform="matrix(0.719, 0.695, -0.695, 0.719, 291.375, -50.86)"><rect class="p" width="26.078" height="26.078"/><rect class="q" x="0.5" y="0.5" width="25.078" height="25.078"/></g><g class="l" transform="translate(543.761 205.816) rotate(-72)"><rect class="p" width="121.594" height="121.594"/><rect class="q" x="1" y="1" width="119.594" height="119.594"/></g><g class="l" transform="matrix(0.719, 0.695, -0.695, 0.719, 1391.869, -11.942)"><rect class="p" width="146.459" height="146.459"/><rect class="q" x="1" y="1" width="144.459" height="144.459"/></g><g class="h" transform="translate(957.399 39.472) rotate(168)"><rect class="p" width="9.445" height="9.445"/><rect class="q" x="0.5" y="0.5" width="8.445" height="8.445"/></g></g><g transform="translate(-867.675 -382.393)"><g class="m" transform="matrix(0.799, -0.602, 0.602, 0.799, 866.7, 763.055)"><rect class="p" width="923.346" height="923.346"/><rect class="q" x="1" y="1" width="921.346" height="921.346"/></g><g class="n" transform="matrix(0.087, 0.996, -0.996, 0.087, 2476.503, 853.922)"><rect class="p" width="514.105" height="514.105"/><rect class="q" x="1" y="1" width="512.105" height="512.105"/></g><g class="h" transform="matrix(0.719, 0.695, -0.695, 0.719, 840.295, 1251.359)"><rect class="p" width="130.045" height="130.045"/><rect class="q" x="0.5" y="0.5" width="129.045" height="129.045"/></g><g class="h" transform="translate(1574.205 103.419) rotate(170)"><rect class="p" width="184.104" height="184.104"/><rect class="q" x="0.5" y="0.5" width="183.104" height="183.104"/></g><g class="h" transform="matrix(0.719, 0.695, -0.695, 0.719, 315.749, -14.494)"><rect class="p" width="61.166" height="61.166"/><rect class="q" x="0.5" y="0.5" width="60.166" height="60.166"/></g><g class="o" transform="matrix(0.719, 0.695, -0.695, 0.719, 2896.948, 76.787)"><rect class="p" width="343.518" height="343.518"/><rect class="q" x="3.5" y="3.5" width="336.518" height="336.518"/></g></g></g></svg>