<svg xmlns="http://www.w3.org/2000/svg" xmlns:xlink="http://www.w3.org/1999/xlink" width="93" height="93" viewBox="0 0 93 93"><defs><style>.a{fill:url(#a);}.b{fill:#0a0a19;}.c{fill:#fff;}.d{fill:none;stroke:#067dd1;stroke-linecap:round;}.e{filter:url(#b);}</style><linearGradient id="a" x1="0.5" x2="0.917" y2="1.06" gradientUnits="objectBoundingBox"><stop offset="0" stop-color="#089ff9"/><stop offset="1" stop-color="#004bd4"/></linearGradient><filter id="b" x="0" y="0" width="93" height="93" filterUnits="userSpaceOnUse"><feOffset dy="5" input="SourceAlpha"/><feGaussianBlur stdDeviation="6.5" result="c"/><feFlood flood-opacity="0.29"/><feComposite operator="in" in2="c"/><feComposite in="SourceGraphic"/></filter></defs><g transform="translate(19.5 14.5)"><g class="e" transform="matrix(1, 0, 0, 1, -19.5, -14.5)"><path class="a" d="M26.036,54v-.017A27,27,0,1,1,53.961,25.554H54V54Z" transform="translate(19.5 14.5)"/></g><path class="b" d="M12.536,26v-.008A13,13,0,1,1,25.981,12.3H26V26Z" transform="translate(14 14)"/><rect class="c" width="3" height="3" rx="1.5" transform="translate(19 22)"/><rect class="c" width="3" height="3" rx="1.5" transform="translate(25 22)"/><path class="d" d="M2717.851,687.187s3.193,5.8,11.608,5.223a21.468,21.468,0,0,0,13.8-6.191" transform="translate(-2703.297 -653.918)"/></g></svg>