<svg xmlns="http://www.w3.org/2000/svg" xmlns:xlink="http://www.w3.org/1999/xlink" width="56.399" height="56.466" viewBox="0 0 56.399 56.466"><defs><style>.a{fill:#fff;stroke:#707070;opacity:0;}.b{fill:url(#a);}.c,.d,.f{fill:none;}.c{stroke:#fff;stroke-linejoin:round;}.c,.d{stroke-linecap:round;stroke-width:2px;}.d{stroke:#f3f4f5;}.e{stroke:none;}</style><linearGradient id="a" x1="0.5" x2="0.5" y2="1" gradientUnits="objectBoundingBox"><stop offset="0" stop-color="#089ff9"/><stop offset="1" stop-color="#004bd4"/></linearGradient></defs><g class="a"><rect class="e" width="56" height="56"/><rect class="f" x="0.5" y="0.5" width="55" height="55"/></g><g transform="translate(-949 -1753)"><path class="b" d="M18,0H40.091a0,0,0,0,1,0,0V40.091a0,0,0,0,1,0,0H0a0,0,0,0,1,0,0V18A18,18,0,0,1,18,0Z" transform="translate(965.309 1769.375)"/><g transform="translate(955.519 1787.762)"><path class="c" d="M0,0,3.518,3.437,6.955,0" transform="translate(30.148 6.955) rotate(-90)"/><line class="d" x1="32.632" transform="translate(0 3.523)"/></g></g></svg>