<svg xmlns="http://www.w3.org/2000/svg" width="31.89" height="39.194" viewBox="0 0 31.89 39.194"><defs><style>.a{fill:#024bd2;}.b{fill:#089ff9;}.c{fill:#2354ad;}</style></defs><path class="a" d="M1831.744-1208.94h-.008l0-.006c-.032-.04-.009-.107-.06-.135-.245-.135-.487-.274-.72-.432-.32-.218-.666-.4-.99-.611-.127-.083-.284-.139-.359-.291-.013-.027-.042-.029-.074-.021a.19.19,0,0,1-.165-.054,7.007,7.007,0,0,0-.66-.431c-.352-.2-.694-.409-1.029-.63-.21-.139-.426-.272-.636-.41a5.849,5.849,0,0,1-1.033-.7.075.075,0,0,0-.05-.009.3.3,0,0,1-.19-.069q-.234-.164-.475-.318a4.749,4.749,0,0,1-.545-.338.184.184,0,0,0-.184-.038l0,0a.115.115,0,0,0-.073-.145.468.468,0,0,1-.214-.189.26.26,0,0,0-.183-.12v0a.42.42,0,0,0-.032-.214,1.189,1.189,0,0,1-.1-.44c.012-.446.005-.892.024-1.339.023-.542,0-1.086.008-1.629.008-.465-.035-.928-.03-1.393.015-1.248-.028-2.5.023-3.744.013-.31,0-.62.008-.93a1.406,1.406,0,0,1,.077-.545,1.626,1.626,0,0,1,.833-.783c.074-.032.1-.061.1-.136l2.146-1.331c.4-.25.809-.5,1.21-.751a.175.175,0,0,1,.225,0c.145.1.3.191.445.286-.007.059.025.087.071.12.127.091.266.161.4.243.325.2.639.424.983.594.1.051.177.177.319.138l-.006,0,.005-.005c0,.129-.053.156-.174.063.019.074.049.14-.017.156a2.075,2.075,0,0,0-.439.254c-.086.045-.239.054-.243.209h0a.267.267,0,0,0-.229.075,4.038,4.038,0,0,1-.647.388,4.926,4.926,0,0,0-.523.309c-.212.145-.441.26-.65.406a.71.71,0,0,0-.176.174.114.114,0,0,0,.038.171,3.3,3.3,0,0,1,.454.273,6.644,6.644,0,0,1,.614.377.229.229,0,0,0,.2.055h0c.04.184.226.214.348.284a5.981,5.981,0,0,0,.648.414c.081.034.137.155.214.166.189.027.3.175.452.254.25.128.458.324.718.447a2.306,2.306,0,0,1,.431.26c.275.216.61.33.876.558a2.883,2.883,0,0,0,.352.218c.385.244.768.492,1.154.735.26.164.51.344.784.487.136.071.259.169.394.244.266.147.528.306.783.467.308.194.611.4.919.6.225.146.446.3.681.427a8.391,8.391,0,0,0,.771.477c.14.058.251.185.39.251.088.042.128.144.216.161a.975.975,0,0,1,.387.221.282.282,0,0,0,.23.069l0,0c.018.134.118.174.261.075s.285-.169.421-.262c.255-.176.511-.349.777-.507s.536-.344.814-.5c.132-.073.235-.18.364-.256.266-.158.534-.316.787-.494.1-.067.225-.074.29-.141a3.124,3.124,0,0,1,.482-.344q.2-.144.416-.269c.269-.158.532-.326.8-.491a1.683,1.683,0,0,1,.409-.25c.2-.052.306-.211.471-.3.144-.075.276-.189.415-.274.3-.183.6-.357.89-.564a1.243,1.243,0,0,1,.3-.167.274.274,0,0,0,.2-.21h0a.176.176,0,0,0,.16-.02c.2-.169.447-.262.647-.428a.472.472,0,0,1,.16-.083c.148-.048.244-.205.418-.2.011,0,.025-.026.034-.042a.518.518,0,0,1,.292-.246.074.074,0,0,0,.059-.093h0a.2.2,0,0,0,.144-.036c.251-.162.5-.319.757-.479l1.049-.667a3.845,3.845,0,0,1,.384-.224c.13-.063.13-.115.021-.215a2.86,2.86,0,0,0-.411-.253c-.331-.216-.692-.385-1.021-.6s-.667-.407-1-.614c-.04-.025-.076-.056-.126-.029l.009-.009-.009.008c-.026-.083-.1-.113-.168-.149-.04-.022-.073-.038-.072-.089s.036-.065.077-.085a.239.239,0,0,0,.146-.137h0c.214-.016.359-.176.531-.273.216-.122.426-.259.638-.39.266-.165.56-.286.812-.474a.2.2,0,0,1,.248-.008c.109.055.152.218.315.186.021,0,.053.047.081.072s.054.067.1.073a1,1,0,0,1,.36.193c.232.132.461.27.688.411.161.1.318.2.474.31a2.621,2.621,0,0,0,.406.271c.2.082.355.219.546.3.151.067.284.172.434.246a.847.847,0,0,1,.366.262,1.7,1.7,0,0,1,.295.614,1.252,1.252,0,0,1-.144.836.884.884,0,0,0-.131.286h0a.162.162,0,0,0-.163.051.91.91,0,0,1-.237.191c-.3.129-.535.358-.822.505-.065.033-.089.112-.154.135a5.287,5.287,0,0,0-.606.347c-.238.122-.452.286-.7.4a.2.2,0,0,0-.071.042c-.214.252-.547.329-.792.545a6.741,6.741,0,0,1-.7.433c-.234.159-.474.306-.706.467s-.493.279-.724.444c-.079.056-.108.193-.042.21a1.531,1.531,0,0,1,.392.227c.234.14.459.293.688.441a.178.178,0,0,0,.16.027h0c.015.093.086.137.159.179.111.065.226.125.331.2.23.165.475.306.713.458.392.25.787.494,1.178.745.073.047.13.157.2.164.2.02.29.2.455.268a1.635,1.635,0,0,1,.311.181,4.672,4.672,0,0,0,.755.483,1.286,1.286,0,0,1,.394.331,1.807,1.807,0,0,1,.254.593,1.3,1.3,0,0,1-.313,1.008,4.8,4.8,0,0,1-.825.571c-.288.182-.573.37-.86.554a.091.091,0,0,0-.045.093h0a.276.276,0,0,0-.16.031c-.3.194-.606.389-.921.564-.285.159-.528.386-.822.531a5.065,5.065,0,0,1-.429.279,1.858,1.858,0,0,0-.492.292c-.26.208-.563.341-.826.538-.191.143-.4.256-.606.386a3.289,3.289,0,0,1-.562.328c-.09.036-.117.073-.1.158h0a.335.335,0,0,0-.219.074c-.32.2-.651.389-.958.609-.109.078-.242.06-.339.156a4.691,4.691,0,0,1-.719.5c-.284.194-.6.343-.876.552-.041.031-.089.05-.13.077-.132.087-.3.135-.367.3h0c-.111-.032-.181.039-.261.1a10.108,10.108,0,0,1-.936.573,6.585,6.585,0,0,1-.559.366,2.488,2.488,0,0,0-.451.288c-.221.161-.475.279-.7.432-.254.169-.511.334-.766.5a3.056,3.056,0,0,0-.461.273c-.2.2-.48.236-.672.425-.009.009-.026.008-.039.013a1.278,1.278,0,0,1-1.074-.143c-.1-.052-.181-.169-.32-.143h0c0-.044,0-.086-.052-.1-.149-.057-.26-.174-.4-.245-.2-.1-.357-.255-.551-.364l-.411-.229c-.195-.108-.367-.254-.557-.373-.171-.107-.355-.193-.525-.3a4.641,4.641,0,0,0-.663-.436,5.488,5.488,0,0,1-.842-.52c-.451-.3-.918-.572-1.373-.865a2.393,2.393,0,0,0-.492-.308,3.184,3.184,0,0,1-.6-.384c-.171-.11-.344-.217-.516-.325A.175.175,0,0,0,1831.744-1208.94Zm20.105-5.8-.054-.03a.315.315,0,0,0-.167-.171c-.167-.089-.322-.2-.481-.3-.045-.03-.06-.094-.123-.106-.278-.056-.458-.278-.687-.417a.389.389,0,0,0-.259-.081h0a.661.661,0,0,0-.442-.281l-.005,0c-.021-.116-.114-.125-.205-.135a.008.008,0,0,1-.012,0l-.034-.026h0a.077.077,0,0,0-.044-.1,1.7,1.7,0,0,0-.394-.187c0-.094-.081-.115-.142-.149a1.126,1.126,0,0,1-.28-.173.334.334,0,0,0-.246-.1c0-.047-.031-.07-.068-.1a7.393,7.393,0,0,1-.663-.456c-.1-.086-.263-.168-.384-.082-.312.223-.659.39-.965.62-.064.048-.171.067-.176.178h0a.142.142,0,0,0-.092,0c-.106.013-.159.121-.257.143-.077.017-.09.066-.079.132a.063.063,0,0,0,0,.021h0l-.043.005a.484.484,0,0,0-.4.253h0a.274.274,0,0,0-.243.078c-.277.215-.606.349-.882.566a.118.118,0,0,1-.065.02.187.187,0,0,0-.151.085.526.526,0,0,1-.161.126c-.077.047-.2.059-.211.181a1.5,1.5,0,0,0-.6.3c-.2.135-.4.282-.609.406-.085.05-.2.085-.227.207-.049.011-.1,0-.146.034-.184.16-.415.244-.612.389a8.063,8.063,0,0,1-.816.493,1.128,1.128,0,0,1-1.121,0c-.144-.069-.23-.257-.429-.211a.624.624,0,0,0-.426-.247l-.024,0c-.015-.011-.029-.023-.045-.033q-1.969-1.235-3.937-2.47c-.461-.289-.924-.574-1.386-.86l-.03-.024a.015.015,0,0,0-.018-.008.968.968,0,0,0-.265-.166l-.045-.028a1.016,1.016,0,0,0-.087-.069c-.358-.226-.715-.454-1.076-.674-.313-.191-.613-.405-.938-.577-.651-.411-1.3-.826-1.955-1.231a9.482,9.482,0,0,0-1.01-.61,3.307,3.307,0,0,0-.622-.409,1.7,1.7,0,0,1-.284-.173c-.064-.057-.121-.127-.222-.11-.132.027-.083.125-.063.193a.851.851,0,0,1,.037.288c-.008.148-.025.3-.025.444,0,1.217-.005,2.433,0,3.65,0,.112-.056.2-.046.319a6.606,6.606,0,0,1,0,.866.413.413,0,0,0,.137.405c.068.051.145.079.214.122.254.157.511.309.756.479.167.117.377.176.5.354.007.011.022.024.033.024.229,0,.35.2.533.284.147.066.243.244.438.2h0c.007.021.008.049.023.063.149.141.352.2.506.336s.338.167.479.294a4.391,4.391,0,0,0,.569.361c.27.176.541.351.815.519.09.055.134.181.247.178a.26.26,0,0,1,.161.058c.124.08.237.175.36.252.3.189.62.356.919.553.353.232.714.452,1.07.678.232.147.46.3.7.439.123.072.233.161.352.234s.213.127.321.186c.194.106.356.258.561.348a2.463,2.463,0,0,1,.483.287c.254.192.533.34.792.522a12.275,12.275,0,0,0,1.058.648c.128.072.194.21.328.262a.877.877,0,0,1,.335.156.289.289,0,0,0,.214.1c.01.133.143.148.219.186.334.169.263.254.621.056.1-.052.16-.127.245-.181a5.4,5.4,0,0,1,.514-.287.121.121,0,0,0,.083-.141,1.745,1.745,0,0,0,.571-.295c.214-.133.419-.28.634-.412.089-.054.245-.063.244-.224h0a.243.243,0,0,0,.193-.055,1.237,1.237,0,0,1,.308-.185.246.246,0,0,0,.179-.173.328.328,0,0,0,.2-.078,1.393,1.393,0,0,1,.369-.217c.1-.031.122-.074.119-.16l.578-.382a.013.013,0,0,0,.016-.011,2.476,2.476,0,0,0,.425-.27h0a6.2,6.2,0,0,0,.753-.479,3.056,3.056,0,0,0,.447-.279c.459-.261.9-.549,1.34-.842h0l.043-.006a.167.167,0,0,0,.158-.028,3.856,3.856,0,0,1,.451-.29c.045-.033.095-.059.107-.12.044-.01.091.007.132-.03a1.341,1.341,0,0,1,.275-.181c.231-.122.435-.286.659-.418a4.648,4.648,0,0,1,.455-.284,4.381,4.381,0,0,0,.463-.269c.2-.12.386-.27.585-.4.09-.058.226-.075.259-.209a.321.321,0,0,0,.2-.077,1.228,1.228,0,0,1,.336-.188.171.171,0,0,0,.134-.158c.086-.029.22.019.224-.141.148-.021.223-.088.219-.194-.006-.154-.125-.07-.193-.093Z" transform="translate(-1823.881 1243.26)"/><path class="b" d="M1841.279-1786.557a.008.008,0,0,0,.012-.006l.034-.025h0a2.232,2.232,0,0,0,.449-.269,6.073,6.073,0,0,0,.718-.467h0a.328.328,0,0,0,.135-.069q1.269-.8,2.538-1.6c.29-.184.592-.349.864-.561.572-.358,1.144-.714,1.714-1.073q1.86-1.173,3.718-2.35a1.389,1.389,0,0,1,1.327-.169,1.3,1.3,0,0,1,.386,2.124,7.154,7.154,0,0,1-.952.633q-1.867,1.188-3.743,2.364-1.282.807-2.565,1.611c-.831.524-1.659,1.051-2.49,1.575q-1.736,1.1-3.474,2.189-.768.484-1.533.973a1.35,1.35,0,0,1-1.5-.012c-.767-.493-1.543-.973-2.315-1.457q-1.319-.827-2.64-1.652c-.647-.4-1.3-.807-1.942-1.212q-1.324-.831-2.647-1.666-1.413-.888-2.829-1.771l-2.27-1.425a1.293,1.293,0,0,1-.036-2.133c.721-.47,1.459-.914,2.191-1.368l3.5-2.171,3.728-2.308,3.216-1.993c.748-.463,1.485-.945,2.248-1.381a1.252,1.252,0,0,1,1.634.378,1.29,1.29,0,0,1-.391,1.89q-1.763,1.092-3.522,2.188t-3.5,2.164c-.6.372-1.2.748-1.8,1.121-.041.021-.084.039-.122.063-.89.55-1.781,1.1-2.668,1.651-.275.172-.561.326-.819.525h0a3.181,3.181,0,0,0-.432.25c-.049.026-.058.06-.006.092.3.179.579.384.888.545l.039.017a.737.737,0,0,0,.083.072q.549.346,1.1.691c.552.347,1.1.7,1.656,1.038a6.851,6.851,0,0,0,.7.425l0,0a2.96,2.96,0,0,0,.453.3c.25.152.484.328.748.458h0a.406.406,0,0,0,.05.045c.5.313.989.63,1.489.936.278.169.544.358.836.5h0a6.913,6.913,0,0,0,.894.56h0a6.583,6.583,0,0,0,.894.56h0a.363.363,0,0,0,.057.057c.3.191.6.387.909.569a9.031,9.031,0,0,0,.822.495h0a1.129,1.129,0,0,0,.339.217.018.018,0,0,0,.019.009c.072.058.131.162.245.106a.866.866,0,0,0,.275-.185v-.008l0,.007a1.483,1.483,0,0,0,.136-.068c.331-.208.661-.416.989-.628.249-.161.513-.3.748-.483a.019.019,0,0,0,.018-.011,3.594,3.594,0,0,0,.519-.315A9.76,9.76,0,0,0,1841.279-1786.557Z" transform="translate(-1821.69 1802.387)"/><path class="c" d="M2014.984-1065.6a.282.282,0,0,1-.23-.069.97.97,0,0,0-.387-.221c-.088-.016-.127-.119-.216-.161-.138-.067-.249-.193-.389-.251a8.325,8.325,0,0,1-.771-.477c-.235-.128-.456-.281-.681-.427-.307-.2-.61-.406-.918-.6-.255-.16-.517-.32-.783-.467-.135-.074-.258-.172-.394-.244-.274-.143-.524-.323-.784-.487-.385-.244-.769-.491-1.154-.735a2.9,2.9,0,0,1-.352-.218c-.265-.229-.6-.342-.876-.558a2.289,2.289,0,0,0-.431-.26c-.26-.123-.468-.319-.718-.447-.154-.078-.263-.227-.452-.254-.078-.011-.134-.132-.215-.166a5.931,5.931,0,0,1-.648-.414c-.122-.07-.308-.1-.348-.284.435.269.871.536,1.3.808q2.655,1.664,5.309,3.33l3.51,2.2C2014.569-1065.867,2014.776-1065.734,2014.984-1065.6Z" transform="translate(-1999.123 1092.768)"/><path class="c" d="M2396.573-1008.346a.275.275,0,0,1-.2.21,1.234,1.234,0,0,0-.3.167c-.285.207-.59.38-.89.564-.14.085-.271.2-.416.274-.165.086-.275.245-.471.3a1.677,1.677,0,0,0-.408.25c-.265.165-.528.333-.8.491q-.215.126-.416.269a3.118,3.118,0,0,0-.482.344c-.065.067-.195.074-.291.141-.253.178-.52.336-.786.494-.128.076-.231.183-.364.256-.278.154-.541.336-.814.5s-.522.331-.777.507c-.135.093-.284.167-.421.262s-.243.059-.261-.075c.086.066.159.045.248-.012q2.691-1.7,5.385-3.4l2.386-1.505A.627.627,0,0,1,2396.573-1008.346Z" transform="translate(-2372.613 1030.563)"/><path class="c" d="M1822.578-1151.391c.008.074-.022.1-.1.136a1.627,1.627,0,0,0-.833.783,1.409,1.409,0,0,0-.077.545c-.012.31,0,.62-.008.93-.051,1.248-.008,2.5-.023,3.744-.006.464.038.928.03,1.393-.009.543.015,1.087-.008,1.629-.019.447-.012.893-.024,1.339a1.185,1.185,0,0,0,.1.44.419.419,0,0,1,.032.214,1.156,1.156,0,0,1-.206-.724c0-.853.01-1.706.014-2.559,0-.914,0-1.828.013-2.741.016-1.249.015-2.5.018-3.748a1.275,1.275,0,0,1,.678-1.157Z" transform="translate(-1821.469 1169.606)"/><path class="c" d="M2790.871-906.54a.09.09,0,0,1,.045-.093c.288-.184.572-.372.86-.554a4.8,4.8,0,0,0,.825-.571,1.3,1.3,0,0,0,.313-1.008,1.8,1.8,0,0,0-.253-.593,1.289,1.289,0,0,0-.394-.331,4.673,4.673,0,0,1-.755-.483,1.633,1.633,0,0,0-.311-.181c-.165-.07-.256-.248-.455-.268-.072-.007-.128-.117-.2-.164-.391-.251-.786-.5-1.179-.745-.238-.152-.483-.293-.712-.458-.1-.075-.22-.135-.331-.2-.073-.043-.144-.086-.159-.179.339.211.68.42,1.017.635,1.048.666,2.093,1.336,3.142,2a1.311,1.311,0,0,1,.463,1.869,1.185,1.185,0,0,1-.351.355c-.5.318-1,.63-1.5.943A.43.43,0,0,1,2790.871-906.54Z" transform="translate(-2761.115 937.273)"/><path class="c" d="M2738.964-1217.3a.882.882,0,0,1,.131-.286,1.256,1.256,0,0,0,.144-.836,1.7,1.7,0,0,0-.295-.614.846.846,0,0,0-.366-.262c-.15-.075-.283-.179-.434-.246-.191-.084-.349-.221-.546-.3a2.57,2.57,0,0,1-.406-.271c-.156-.107-.313-.211-.475-.31-.227-.14-.456-.279-.688-.411a1,1,0,0,0-.36-.193c-.045-.006-.069-.045-.1-.073s-.06-.076-.081-.072c-.164.032-.206-.132-.315-.186a.2.2,0,0,0-.249.008c-.251.188-.546.31-.812.474-.212.131-.422.268-.638.39-.172.1-.316.257-.531.273.281-.2.583-.363.875-.543.38-.234.764-.463,1.143-.7a.145.145,0,0,1,.176,0c1.188.724,2.378,1.444,3.564,2.17a1.293,1.293,0,0,1,.341,1.918C2739.021-1217.35,2739-1217.317,2738.964-1217.3Z" transform="translate(-2707.44 1237.749)"/><path class="c" d="M2102.482-576.054a.175.175,0,0,1,.136.012c.173.107.346.214.517.325a3.172,3.172,0,0,0,.6.384,2.4,2.4,0,0,1,.492.309c.455.292.921.566,1.372.865a5.494,5.494,0,0,0,.842.52,4.638,4.638,0,0,1,.664.435c.17.109.354.2.525.3.19.119.362.265.557.373l.411.229c.193.109.354.265.551.364.141.071.253.188.4.245.047.018.053.061.052.1-.384-.236-.769-.47-1.151-.709q-2.217-1.388-4.433-2.779l-1.465-.92A.85.85,0,0,1,2102.482-576.054Z" transform="translate(-2094.619 610.375)"/><path class="c" d="M2743.9-1067.526a.18.18,0,0,1-.16-.026c-.229-.147-.455-.3-.688-.441a1.544,1.544,0,0,0-.392-.227c-.066-.017-.037-.154.042-.21.231-.165.493-.283.724-.444s.473-.308.706-.467a6.765,6.765,0,0,0,.7-.433c.245-.216.578-.293.792-.545a.2.2,0,0,1,.072-.042c.245-.111.459-.276.7-.4a5.35,5.35,0,0,1,.606-.347c.065-.023.089-.1.155-.135.287-.147.522-.377.822-.505a.909.909,0,0,0,.237-.191.163.163,0,0,1,.163-.051,1.564,1.564,0,0,1-.486.367q-2.547,1.609-5.1,3.213c-.035.022-.068.047-.119.081Z" transform="translate(-2716.85 1092.43)"/><path class="c" d="M1845.737-736.929a.185.185,0,0,1,.184.038,4.739,4.739,0,0,0,.545.338q.241.154.475.318a.3.3,0,0,0,.19.069.076.076,0,0,1,.05.009,5.846,5.846,0,0,0,1.033.7c.211.139.426.271.636.41.335.221.677.433,1.029.63a7.023,7.023,0,0,1,.66.431.191.191,0,0,0,.165.054c.031-.008.06-.006.073.021.075.152.232.208.359.291.324.212.67.393.99.611.233.159.475.3.72.432.051.028.028.1.06.135-.454-.281-.909-.56-1.362-.843q-2.766-1.731-5.531-3.465C1845.921-736.8,1845.83-736.867,1845.737-736.929Z" transform="translate(-1845.058 766.751)"/><path class="c" d="M2357.054-509.47c.139-.026.216.092.32.143a1.278,1.278,0,0,0,1.074.143c.013-.005.031,0,.04-.013.192-.189.472-.229.672-.425a3.067,3.067,0,0,1,.461-.273c.256-.167.513-.331.766-.5.23-.153.484-.27.7-.432a2.467,2.467,0,0,1,.451-.288,6.569,6.569,0,0,0,.559-.366,10.124,10.124,0,0,0,.936-.573c.08-.058.15-.129.261-.1-.358.259-.74.48-1.112.716-1,.636-2,1.263-3.008,1.894-.146.092-.289.188-.437.274a1.291,1.291,0,0,1-1.423-.028C2357.228-509.349,2357.142-509.411,2357.054-509.47Z" transform="translate(-2342.068 548.258)"/><path class="c" d="M2708.9-700.936c-.013-.084.015-.122.1-.158a3.274,3.274,0,0,0,.562-.328c.2-.13.415-.243.606-.386.263-.2.566-.331.826-.538a1.852,1.852,0,0,1,.492-.292,5.092,5.092,0,0,0,.429-.279c.294-.145.537-.372.822-.531.315-.176.618-.37.921-.564a.278.278,0,0,1,.16-.031c-.31.229-.646.419-.97.625q-1.766,1.119-3.537,2.229C2709.177-701.1,2709.037-701.02,2708.9-700.936Z" transform="translate(-2684.064 734.775)"/><path class="c" d="M2733.633-1159.9c.051-.027.086,0,.127.029.331.207.672.4,1,.614s.691.386,1.021.6a2.883,2.883,0,0,1,.411.253c.108.1.109.152-.021.215a3.839,3.839,0,0,0-.384.223l-1.049.667c-.252.16-.506.317-.757.479a.2.2,0,0,1-.144.036c.267-.2.559-.363.84-.543.469-.3.942-.595,1.414-.892.141-.089.141-.091,0-.176l-2.4-1.465A.568.568,0,0,1,2733.633-1159.9Z" transform="translate(-2708.11 1177.891)"/><path class="c" d="M2580.11-590.794c.068-.166.235-.212.367-.3.041-.027.089-.045.13-.077.276-.21.592-.359.876-.552a4.692,4.692,0,0,0,.719-.5c.1-.1.23-.079.339-.156.307-.22.638-.406.958-.609a.335.335,0,0,1,.219-.074c-.394.253-.787.508-1.183.759q-1.167.739-2.335,1.474A.683.683,0,0,1,2580.11-590.794Z" transform="translate(-2558.883 626.904)"/><path class="c" d="M1958.135-1149.891a.229.229,0,0,1-.2-.055,6.644,6.644,0,0,0-.614-.377,3.289,3.289,0,0,0-.454-.273.115.115,0,0,1-.038-.171.71.71,0,0,1,.176-.174c.21-.146.438-.262.65-.406a4.9,4.9,0,0,1,.523-.309,4.019,4.019,0,0,0,.647-.388.267.267,0,0,1,.229-.075c-.317.229-.658.418-.988.625q-.569.355-1.142.7c-.092.055-.072.083,0,.129q.551.344,1.1.691C1958.062-1149.947,1958.1-1149.918,1958.135-1149.891Z" transform="translate(-1953.019 1170.319)"/><path class="c" d="M2679.448-1048.076a.074.074,0,0,1-.059.093.519.519,0,0,0-.292.246c-.008.016-.022.042-.034.042-.175,0-.27.154-.418.2a.473.473,0,0,0-.159.083c-.2.166-.449.259-.648.428a.175.175,0,0,1-.159.02C2678.261-1047.346,2678.847-1047.724,2679.448-1048.076Z" transform="translate(-2653.722 1069.182)"/><path class="c" d="M2006.734-1214.316c-.142.038-.216-.088-.319-.139-.344-.17-.658-.391-.983-.594-.132-.082-.271-.153-.4-.243-.046-.033-.079-.061-.072-.12.408.248.817.494,1.223.744C2006.37-1214.553,2006.551-1214.433,2006.734-1214.316Z" transform="translate(-1999.826 1231.835)"/><path class="c" d="M2037.093-1175.616c0-.155.157-.164.243-.209a2.061,2.061,0,0,1,.439-.254c.066-.016.036-.083.017-.156.121.092.176.065.174-.064.042.016.1.024.105.073s-.055.057-.089.076C2037.684-1175.975,2037.4-1175.775,2037.093-1175.616Z" transform="translate(-2031.059 1193.817)"/><path class="c" d="M1828.785-752.881a.261.261,0,0,1,.183.12.466.466,0,0,0,.214.19.115.115,0,0,1,.073.145A1.066,1.066,0,0,1,1828.785-752.881Z" transform="translate(-1828.58 782.246)"/><path class="c" d="M2719.323-1176.006c-.021.074-.086.106-.146.137-.04.021-.076.034-.077.086s.032.067.073.089c.066.036.142.066.168.149a3.982,3.982,0,0,1-.411-.237Z" transform="translate(-2693.82 1193.532)"/><path class="c" d="M2005.107-745.146c.367.2.712.429,1.064.649q2.113,1.322,4.225,2.646l3.68,2.309c.169.106.341.21.511.315a.671.671,0,0,0,.2.124h0l.621.412-.011.013a.289.289,0,0,1-.214-.1.876.876,0,0,0-.335-.156c-.134-.051-.2-.19-.328-.262a12.2,12.2,0,0,1-1.058-.648c-.259-.181-.538-.33-.792-.522a2.483,2.483,0,0,0-.483-.287c-.2-.09-.367-.242-.561-.348-.108-.059-.217-.122-.321-.186s-.229-.162-.352-.234c-.237-.139-.465-.292-.7-.439-.357-.226-.717-.446-1.07-.678-.3-.2-.616-.364-.919-.553-.123-.077-.237-.172-.36-.252a.26.26,0,0,0-.161-.057c-.113,0-.157-.123-.247-.179-.275-.168-.546-.343-.815-.519a4.37,4.37,0,0,1-.569-.361c-.141-.126-.336-.168-.479-.294s-.357-.195-.506-.336C2005.115-745.1,2005.114-745.125,2005.107-745.146Z" transform="translate(-1999.969 774.728)"/><path class="c" d="M1911.675-1015.784q0,.6,0,1.2c-.007.083-.02.166-.02.249q0,1.163,0,2.326c0,.045-.014.1.046.117.223.142.441.294.671.425.31.176.608.374.908.564s.629.372.917.6c-.2.04-.291-.138-.438-.2-.183-.082-.3-.283-.533-.284-.011,0-.025-.013-.033-.024-.124-.178-.334-.237-.5-.354-.244-.171-.5-.322-.756-.479-.07-.043-.146-.071-.214-.122a.413.413,0,0,1-.137-.405,6.587,6.587,0,0,0,0-.866c-.01-.117.046-.207.046-.319-.008-1.217-.005-2.433,0-3.65,0-.148.017-.3.026-.444a.855.855,0,0,0-.038-.288c-.02-.068-.069-.166.063-.193l.009.837q0,.042,0,.084,0,.574,0,1.148v.083Z" transform="translate(-1909.052 1039.885)"/><path class="c" d="M2359.168-767.781c-.209.13-.423.253-.627.391a1.361,1.361,0,0,1-1.583.057l-.26-.186.012-.013c.2-.046.285.143.429.212a1.129,1.129,0,0,0,1.121,0,8.064,8.064,0,0,0,.815-.493c.2-.144.428-.229.612-.389.044-.038.1-.023.146-.034l.008.007a.059.059,0,0,0,0,.024h0A6.508,6.508,0,0,0,2359.168-767.781Z" transform="translate(-2341.723 797.17)"/><path class="c" d="M2688.008-750.487a2.056,2.056,0,0,0,.43-.253c.482-.3.96-.606,1.44-.909a1.607,1.607,0,0,0,.285-.183h0l.443-.257.007.008c-.032.134-.169.151-.259.209-.2.128-.382.278-.585.4a4.407,4.407,0,0,1-.463.268,4.634,4.634,0,0,0-.455.284c-.223.132-.428.3-.659.418a1.317,1.317,0,0,0-.275.18c-.041.037-.088.02-.132.03l-.009-.01C2687.842-750.381,2687.957-750.393,2688.008-750.487Z" transform="translate(-2663.538 781.476)"/><path class="c" d="M2613.5-887.985l-.772.487-.181.1c.005-.111.111-.13.176-.178.306-.23.653-.4.966-.62.12-.086.284,0,.384.082a7.383,7.383,0,0,0,.663.456c.038.026.066.049.068.1l-.006.007a.044.044,0,0,0-.027,0,.014.014,0,0,0-.017-.006,2.122,2.122,0,0,0-.4-.253h0a1.314,1.314,0,0,0-.287-.185.014.014,0,0,0-.016-.009c-.064-.044-.128-.087-.19-.134a.1.1,0,0,0-.125,0C2613.656-888.092,2613.576-888.039,2613.5-887.985Z" transform="translate(-2590.408 913.815)"/><path class="c" d="M2374.565-527.568a.121.121,0,0,1-.083.141,5.317,5.317,0,0,0-.514.287c-.085.053-.15.128-.245.181-.359.2-.287.113-.622-.056-.076-.039-.208-.053-.219-.186l.011-.013c.164.075.3.188.46.277.043.025.081.061.136.018a2.511,2.511,0,0,0,.294-.2h0c.269-.134.5-.322.768-.466Z" transform="translate(-2357.453 563.253)"/><path class="c" d="M2520.017-837.938c.015-.123.133-.134.211-.182a.526.526,0,0,0,.161-.126.187.187,0,0,1,.151-.085.118.118,0,0,0,.064-.02c.276-.216.6-.35.882-.566a.273.273,0,0,1,.243-.078l-.169.117c-.244.165-.508.3-.738.483h0a2.179,2.179,0,0,0-.416.256h0l-.032.025h0a3.706,3.706,0,0,0-.339.193Z" transform="translate(-2500.471 865.957)"/><path class="c" d="M2757.9-822.69l-.176-.132a.388.388,0,0,1,.259.081c.229.139.409.361.687.417.063.013.078.077.123.106.158.1.314.215.481.3a.314.314,0,0,1,.167.171l-.008.009-.388-.227h0a1.874,1.874,0,0,0-.331-.207l-.024-.018c-.247-.172-.5-.334-.76-.484Z" transform="translate(-2731.532 850.232)"/><path class="c" d="M2468.819-800.085a.022.022,0,0,0-.02.007.061.061,0,0,0-.027,0l-.008-.007c.026-.122.142-.158.227-.207.212-.124.406-.271.608-.406a1.5,1.5,0,0,1,.6-.3l.017.018-.692.455h0a1.461,1.461,0,0,0-.31.194h0A2.141,2.141,0,0,0,2468.819-800.085Z" transform="translate(-2450.653 829.022)"/><path class="c" d="M2433.966-560.27l.05-.007c0,.161-.156.17-.244.224-.216.132-.421.278-.635.411a1.741,1.741,0,0,1-.571.295l-.013-.016,1.02-.656h0A2.472,2.472,0,0,0,2433.966-560.27Z" transform="translate(-2415.455 595.031)"/><path class="c" d="M2508.721-590.795l.662-.4c0,.086-.015.128-.118.16a1.388,1.388,0,0,0-.369.216.328.328,0,0,1-.2.078l-.011-.011a.158.158,0,0,0,0-.021l0,0,.032-.022Z" transform="translate(-2489.454 625.082)"/><path class="c" d="M2484.774-574.945a.082.082,0,0,1,.005-.025l.664-.4.011.011a.245.245,0,0,1-.179.173,1.242,1.242,0,0,0-.308.185A.243.243,0,0,1,2484.774-574.945Z" transform="translate(-2466.214 609.701)"/><path class="c" d="M2789.586-767.194a.171.171,0,0,1-.134.158,1.231,1.231,0,0,0-.335.188.32.32,0,0,1-.2.077l-.007-.008a.048.048,0,0,0,0-.024h0l.665-.4Z" transform="translate(-2761.84 796.168)"/><path class="c" d="M2662.511-687.9c.17-.139.368-.235.547-.359.038-.026.075-.054.112-.081a.023.023,0,0,0,.022-.01.091.091,0,0,0,.025,0l.009.01c-.012.061-.061.087-.107.12a3.888,3.888,0,0,0-.451.29A.167.167,0,0,1,2662.511-687.9Z" transform="translate(-2638.979 719.517)"/><path class="c" d="M2692.945-864.267a.335.335,0,0,1,.246.1,1.133,1.133,0,0,0,.28.173c.062.033.141.055.142.149l-.009.009-.663-.4h0a.214.214,0,0,0,0-.025Z" transform="translate(-2668.555 890.516)"/><path class="c" d="M2597.376-858.8a2.624,2.624,0,0,1-.428.271c-.011-.066,0-.115.079-.133.1-.022.15-.13.257-.143A.142.142,0,0,1,2597.376-858.8Z" transform="translate(-2575.246 885.21)"/><path class="c" d="M2717.2-848.842l-.409-.24-.033-.019c0-.008,0-.015,0-.023l.009-.009a1.688,1.688,0,0,1,.394.187A.077.077,0,0,1,2717.2-848.842Z" transform="translate(-2691.704 875.804)"/><path class="c" d="M2581.582-847.815a2.01,2.01,0,0,1-.4.253A.484.484,0,0,1,2581.582-847.815Z" transform="translate(-2559.926 874.524)"/><path class="c" d="M2820.873-782.244c.068.023.187-.062.193.093,0,.106-.071.173-.219.194l-.008-.008c.05-.065.143-.078.189-.151l-.162-.12Z" transform="translate(-2792.877 810.79)"/><path class="c" d="M2742.337-832.513a3.852,3.852,0,0,1-.442-.281A.662.662,0,0,1,2742.337-832.513Z" transform="translate(-2716.141 859.923)"/><path class="c" d="M2341.877-751.974a.624.624,0,0,1,.426.247l-.011.013-.41-.236h0A.051.051,0,0,0,2341.877-751.974Z" transform="translate(-2327.316 781.365)"/><path class="c" d="M2813.048-772.161c0,.16-.138.111-.224.141l-.008-.009a1,1,0,0,1,.225-.139Z" transform="translate(-2785.078 800.995)"/><path class="c" d="M2734.587-837.612a.589.589,0,0,1-.205-.135C2734.474-837.737,2734.566-837.728,2734.587-837.612Z" transform="translate(-2708.838 864.738)"/><path class="c" d="M2818.822-784.19l.054.03-.011.012-.051-.033Z" transform="translate(-2790.908 812.679)"/><path class="c" d="M2732.748-838.792l-.035-.026Z" transform="translate(-2707.216 865.779)"/><path class="c" d="M2820.649-783.114l.028.027-.006.007-.032-.022Z" transform="translate(-2792.681 811.633)"/></svg>