<svg xmlns="http://www.w3.org/2000/svg" xmlns:xlink="http://www.w3.org/1999/xlink" width="38.295" height="38.337" viewBox="0 0 38.295 38.337"><defs><style>.a{stroke:rgba(0,0,0,0);stroke-miterlimit:10;opacity:0.1;fill:url(#a);}.b{fill:#0679cc;stroke:#fff;stroke-width:0.2px;}</style><linearGradient id="a" x1="0.5" x2="0.902" y2="1.336" gradientUnits="objectBoundingBox"><stop offset="0" stop-color="#089ff9"/><stop offset="1" stop-color="#012669"/></linearGradient></defs><g transform="translate(0.5 0.501)"><path class="a" d="M18.471,37.336A18.9,18.9,0,0,1,0,18.358,18.88,18.88,0,0,1,19.089,0c9.767.2,18.453,8.487,18.2,18.752.2,9.973-8.391,18.58-18.646,18.58Zm12.262-23.69a2.072,2.072,0,0,0-.392-.779Q30.549,13.25,30.733,13.646Z" transform="translate(0)"/><g transform="translate(10.369 11.228)"><path class="b" d="M-807.969,1443.11c.307,0,.551,0,.795,0a2.454,2.454,0,0,1,2.512,2.5q.026,3.292,0,6.584a2.452,2.452,0,0,1-2.529,2.481q-5.733.009-11.467,0a2.458,2.458,0,0,1-2.535-2.516q-.019-4.918,0-9.837a2.459,2.459,0,0,1,2.533-2.518q4.087-.01,8.174,0a2.465,2.465,0,0,1,2.519,2.53C-807.967,1442.574-807.969,1442.817-807.969,1443.11Zm1.649,3.307c0-.2,0-.338,0-.476,0-.96-.222-1.184-1.183-1.184h-12.034v.333q0,3.406,0,6.813c0,.872.253,1.123,1.133,1.123q5.479,0,10.958,0a2.307,2.307,0,0,0,.5-.038.717.717,0,0,0,.6-.629,8.617,8.617,0,0,0,.008-.995,3.3,3.3,0,0,1-2.31-.5,2.444,2.444,0,0,1-.965-2.093,2.4,2.4,0,0,1,.688-1.6A3.016,3.016,0,0,1-806.32,1446.417Zm-3.3-3.328c0-.173,0-.312,0-.452,0-.943-.246-1.191-1.188-1.191h-6.345c-.516,0-1.032-.014-1.547.006a.821.821,0,0,0-.817,1.021.857.857,0,0,0,.941.634q4.333,0,8.666,0C-809.832,1443.109-809.756,1443.1-809.617,1443.089Zm3.276,4.983c-.318,0-.589-.014-.858,0a.806.806,0,0,0-.767.814.809.809,0,0,0,.729.814c.29.026.585.005.9.005Z" transform="translate(821.205 -1439.796)"/></g></g></svg>