<svg xmlns="http://www.w3.org/2000/svg" xmlns:xlink="http://www.w3.org/1999/xlink" width="38.295" height="38.337" viewBox="0 0 38.295 38.337"><defs><style>.a{stroke:rgba(0,0,0,0);stroke-miterlimit:10;opacity:0.1;fill:url(#a);}.b{fill:#0679cc;}</style><linearGradient id="a" x1="0.5" x2="0.902" y2="1.336" gradientUnits="objectBoundingBox"><stop offset="0" stop-color="#089ff9"/><stop offset="1" stop-color="#012669"/></linearGradient></defs><g transform="translate(0.5 0.501)"><path class="a" d="M18.471,37.336A18.9,18.9,0,0,1,0,18.358,18.88,18.88,0,0,1,19.089,0c9.767.2,18.453,8.487,18.2,18.752.2,9.973-8.391,18.58-18.646,18.58Zm12.262-23.69a2.072,2.072,0,0,0-.392-.779Q30.549,13.25,30.733,13.646Z" transform="translate(0)"/><path class="b" d="M-636.049,1607.4a9.329,9.329,0,0,0-9.322,9.323,9.33,9.33,0,0,0,9.306,9.3,9.329,9.329,0,0,0,9.322-9.323A9.33,9.33,0,0,0-636.049,1607.4Zm-.956,16.643a7.276,7.276,0,0,1-6.4-6.377h1.832a5.688,5.688,0,0,0,4.569,4.56Zm.675-3.632a3.7,3.7,0,0,1-3.43-3.466,3.669,3.669,0,0,1,.116-1.142A3.741,3.741,0,0,1-636,1612.9a3.741,3.741,0,0,1,3.741,3.741,3.742,3.742,0,0,1-2.65,3.578A3.746,3.746,0,0,1-636.33,1620.407Zm1.216,3.652v-1.818a5.67,5.67,0,0,0,4.6-6.209,5.629,5.629,0,0,0-4.972-4.876,5.653,5.653,0,0,0-6.1,4.611h-1.851a7.082,7.082,0,0,1,1.459-3.567,7.374,7.374,0,0,1,5.231-2.911,7.483,7.483,0,0,1,8.122,6.9A7.4,7.4,0,0,1-635.114,1624.059Z" transform="translate(654.259 -1598.039)"/></g></svg>