<svg xmlns="http://www.w3.org/2000/svg" xmlns:xlink="http://www.w3.org/1999/xlink" width="38.295" height="38.337" viewBox="0 0 38.295 38.337"><defs><style>.a{stroke:rgba(0,0,0,0);stroke-miterlimit:10;opacity:0.1;fill:url(#a);}.b{fill:#0679cc;}</style><linearGradient id="a" x1="0.5" x2="0.902" y2="1.336" gradientUnits="objectBoundingBox"><stop offset="0" stop-color="#089ff9"/><stop offset="1" stop-color="#012669"/></linearGradient></defs><g transform="translate(0.5 0.501)"><path class="a" d="M18.471,37.336A18.9,18.9,0,0,1,0,18.358,18.88,18.88,0,0,1,19.089,0c9.767.2,18.453,8.487,18.2,18.752.2,9.973-8.391,18.58-18.646,18.58Zm12.262-23.69a2.072,2.072,0,0,0-.392-.779Q30.549,13.25,30.733,13.646Z" transform="translate(0)"/><g transform="translate(11.476 11.594)"><path class="b" d="M-817.359,1636.155c0,1.2-.014,2.391.006,3.585a1.021,1.021,0,0,1-.733,1.09c-1.96.737-3.91,1.5-5.878,2.216a1.489,1.489,0,0,1-.944-.01c-1.949-.712-3.882-1.469-5.826-2.2a1.023,1.023,0,0,1-.755-1.073q.02-3.668,0-7.336a1,1,0,0,1,.73-1.035c1.942-.731,3.875-1.488,5.826-2.2a1.58,1.58,0,0,1,1-.009c1.951.708,3.884,1.465,5.827,2.195a1.02,1.02,0,0,1,.754,1.075C-817.372,1633.691-817.359,1634.923-817.359,1636.155Zm-7.945,4.854c0-1.885,0-3.665-.009-5.444a.488.488,0,0,0-.2-.381c-1.377-.544-2.763-1.065-4.2-1.612,0,1.869,0,3.666.01,5.462a.481.481,0,0,0,.226.368C-828.121,1639.94-826.752,1640.456-825.3,1641.009Zm6.179-7.436c-1.442.549-2.828,1.067-4.2,1.615-.111.044-.2.283-.2.434-.019.807-.009,1.615-.009,2.423v2.963c1.449-.551,2.819-1.064,4.18-1.6a.48.48,0,0,0,.224-.368C-819.12,1637.243-819.125,1635.446-819.125,1633.573Zm-1.6-1.287c-1.273-.483-2.431-.924-3.591-1.359a.332.332,0,0,0-.214,0c-1.158.436-2.313.877-3.577,1.358,1.234.47,2.344.9,3.458,1.311a.647.647,0,0,0,.414.019C-823.107,1633.2-821.982,1632.765-820.728,1632.286Z" transform="translate(831.489 -1629.113)"/></g></g></svg>