<svg xmlns="http://www.w3.org/2000/svg" xmlns:xlink="http://www.w3.org/1999/xlink" width="38.295" height="38.337" viewBox="0 0 38.295 38.337"><defs><style>.a{stroke:rgba(0,0,0,0);stroke-miterlimit:10;opacity:0.15;fill:url(#a);}.b{fill:#0679cc;}</style><linearGradient id="a" x1="0.5" x2="0.902" y2="1.336" gradientUnits="objectBoundingBox"><stop offset="0" stop-color="#089ff9"/><stop offset="1" stop-color="#012669"/></linearGradient></defs><g transform="translate(0.5 0.501)"><path class="a" d="M18.471,37.336A18.9,18.9,0,0,1,0,18.358,18.88,18.88,0,0,1,19.089,0c9.767.2,18.453,8.487,18.2,18.752.2,9.973-8.391,18.58-18.646,18.58Zm12.262-23.69a2.072,2.072,0,0,0-.392-.779Q30.549,13.25,30.733,13.646Z" transform="translate(0)"/><g transform="translate(9.323 12.604)"><path class="b" d="M-484.254,1653.962a1.44,1.44,0,0,0,1.44-1.44,1.44,1.44,0,0,0-1.44-1.44,1.438,1.438,0,0,0-1.173.606h-4.664a.91.91,0,0,0-.91.91.91.91,0,0,0,.91.91h4.789A1.434,1.434,0,0,0-484.254,1653.962Z" transform="translate(491 -1646.382)"/><path class="b" d="M-461.284,1651.536h-4.789a1.435,1.435,0,0,0-1.048-.455,1.44,1.44,0,0,0-1.44,1.44,1.44,1.44,0,0,0,1.44,1.44,1.437,1.437,0,0,0,1.173-.606h4.664a.909.909,0,0,0,.909-.91A.909.909,0,0,0-461.284,1651.536Z" transform="translate(479.021 -1646.382)"/><path class="b" d="M-480.324,1643.88a1.438,1.438,0,0,0,1.173-.606h6.529a.91.91,0,0,0,.909-.91.909.909,0,0,0-.909-.909h-6.653a1.433,1.433,0,0,0-1.048-.455,1.44,1.44,0,0,0-1.44,1.44A1.44,1.44,0,0,0-480.324,1643.88Z" transform="translate(486.07 -1641)"/><path class="b" d="M-473,1660.837a1.438,1.438,0,0,0-1.173.607h-6.062a.91.91,0,0,0-.91.909.91.91,0,0,0,.91.91h6.187a1.436,1.436,0,0,0,1.048.455,1.44,1.44,0,0,0,1.44-1.44A1.441,1.441,0,0,0-473,1660.837Z" transform="translate(485.74 -1651.589)"/></g></g></svg>