<svg xmlns="http://www.w3.org/2000/svg" xmlns:xlink="http://www.w3.org/1999/xlink" width="38.295" height="38.337" viewBox="0 0 38.295 38.337"><defs><style>.a{stroke:rgba(0,0,0,0);stroke-miterlimit:10;opacity:0.1;fill:url(#a);}.b{fill:#0679cc;}</style><linearGradient id="a" x1="0.5" x2="0.902" y2="1.336" gradientUnits="objectBoundingBox"><stop offset="0" stop-color="#089ff9"/><stop offset="1" stop-color="#012669"/></linearGradient></defs><g transform="translate(0.5 0.501)"><path class="a" d="M18.471,37.335A18.9,18.9,0,0,1,0,18.358,18.88,18.88,0,0,1,19.088,0c9.767.2,18.453,8.487,18.2,18.752.2,9.972-8.391,18.58-18.645,18.58Z" transform="translate(0)"/><g transform="translate(10.142 9.37)"><path class="b" d="M6.8,2.045c-.658-.039-1.16-.046-1.657-.1A.9.9,0,0,1,4.278.892.874.874,0,0,1,5.214.011C6.577-.008,7.941,0,9.3,0A.906.906,0,0,1,10.2.572.977.977,0,0,1,9.981,1.7c-2,2.051-6.2,6.6-8.2,8.644a.931.931,0,0,1-1.445.075A.985.985,0,0,1,.4,8.89C1.518,7.739,4.85,4.1,5.969,2.958,6.223,2.7,6.461,2.422,6.8,2.045Z" transform="matrix(0.695, 0.719, -0.719, 0.695, 7.72, 0)"/><path class="b" d="M3.419,8.232c.711.036,1.182.05,1.652.085a.88.88,0,0,1,.917,1,.853.853,0,0,1-.915.893c-1.361.019-2.725.046-4.084-.006A.919.919,0,0,1,.3,8.608C2.281,6.5,6.085,2.421,8.111.356a.906.906,0,0,1,1.437,0A.965.965,0,0,1,9.434,1.8C8.2,3.071,5.19,6.359,3.953,7.626,3.817,7.766,3.694,7.918,3.419,8.232Z" transform="matrix(0.695, 0.719, -0.719, 0.695, 9.419, 4.579)"/></g></g></svg>