<svg xmlns="http://www.w3.org/2000/svg" xmlns:xlink="http://www.w3.org/1999/xlink" width="38.295" height="38.337" viewBox="0 0 38.295 38.337"><defs><style>.a{stroke:rgba(0,0,0,0);stroke-miterlimit:10;opacity:0.1;fill:url(#a);}.b{fill:#0679cc;}</style><linearGradient id="a" x1="0.5" x2="0.902" y2="1.336" gradientUnits="objectBoundingBox"><stop offset="0" stop-color="#089ff9"/><stop offset="1" stop-color="#012669"/></linearGradient></defs><g transform="translate(0.5 0.501)"><path class="a" d="M18.471,37.336A18.9,18.9,0,0,1,0,18.358,18.88,18.88,0,0,1,19.089,0c9.767.2,18.453,8.487,18.2,18.752.2,9.973-8.391,18.58-18.646,18.58Zm12.262-23.69a2.072,2.072,0,0,0-.392-.779Q30.549,13.25,30.733,13.646Z" transform="translate(0)"/><path class="b" d="M-637,1607.4a8.379,8.379,0,0,0-8.372,8.373,8.379,8.379,0,0,0,8.358,8.353,8.379,8.379,0,0,0,8.372-8.373A8.379,8.379,0,0,0-637,1607.4Zm-.859,14.947a6.535,6.535,0,0,1-5.749-5.727h1.646a5.108,5.108,0,0,0,4.1,4.095Zm.607-3.262a3.323,3.323,0,0,1-3.08-3.113,3.294,3.294,0,0,1,.1-1.025,3.36,3.36,0,0,1,3.272-2.6,3.359,3.359,0,0,1,3.359,3.36,3.36,3.36,0,0,1-2.38,3.214A3.359,3.359,0,0,1-637.251,1619.081Zm1.092,3.28v-1.633a5.093,5.093,0,0,0,4.131-5.577,5.055,5.055,0,0,0-4.465-4.379,5.078,5.078,0,0,0-5.476,4.141h-1.663a6.359,6.359,0,0,1,1.311-3.2,6.621,6.621,0,0,1,4.7-2.615,6.72,6.72,0,0,1,7.295,6.2A6.645,6.645,0,0,1-636.16,1622.361Z" transform="translate(655.653 -1597.09)"/></g></svg>