<svg xmlns="http://www.w3.org/2000/svg" width="24" height="24" viewBox="0 0 24 24"><defs><style>.a{fill:#0898f1;}.b{fill:#fff;stroke:#707070;opacity:0;}.c{stroke:none;}.d{fill:none;}</style></defs><g transform="translate(-295.093 -58.287)"><path class="a" d="M306.835,79.2q-3.615,0-7.229,0a2.414,2.414,0,0,1-2.51-2.514q-.007-6.431,0-12.862a2.4,2.4,0,0,1,2.463-2.524q6.091-.025,12.182,0A1.535,1.535,0,0,1,313.4,62.9a9.648,9.648,0,0,1,0,1.2c-.029.38.129.493.481.465a3.221,3.221,0,0,1,.637.027,1.5,1.5,0,0,1,1.329,1.46q.021,1.118,0,2.236c0,.272.083.4.366.372,1.2-.113,1.33.4,1.312,1.353-.027,1.371-.006,2.743-.008,4.114,0,.7-.289.986-.992.992-.746.006-.668-.083-.67.653,0,.612,0,1.225,0,1.837a1.533,1.533,0,0,1-1.58,1.589Q310.549,79.2,306.835,79.2Zm7.425-13.1H298.685c0,.054-.02.169-.021.284q0,5.113,0,10.225a.9.9,0,0,0,1.022,1.029q7.05,0,14.1,0h.5V75.117c-.649,0-1.232.01-1.814,0a3.238,3.238,0,0,1-3.032-3.8,3.187,3.187,0,0,1,3.257-2.655c.515,0,1.03,0,1.566,0Zm-8.755-1.54v0q2.6,0,5.194,0c1.149,0,1.149,0,1.154-1.138,0-.59,0-.588-.591-.588h-7.751q-1.9,0-3.8.006a.958.958,0,0,0-.878.375.792.792,0,0,0-.065.866.95.95,0,0,0,.94.477Q302.608,64.555,305.5,64.558Zm8.591,5.664v.01c-.545,0-1.092-.026-1.635.006a1.616,1.616,0,0,0-1.5,1.7,1.633,1.633,0,0,0,1.564,1.6c1.024.019,2.048,0,3.073.012.263,0,.35-.095.347-.348-.008-.878-.012-1.756,0-2.634,0-.29-.11-.364-.377-.355C315.08,70.234,314.588,70.223,314.1,70.223Z" transform="translate(0)"/><path class="a" d="M364.907,162.965l-.05-.542c-.73-.156-.772-.211-.772-.958,0-1.291,0-2.581-.005-3.872,0-.659.1-.793.778-.9l.052-.574h1.042c.219.177-.122.6.319.607s.175-.4.366-.6h.988c-.151.587.331.743.689,1.018a1.624,1.624,0,0,1,.454,1.878.453.453,0,0,0,.1.523,1.641,1.641,0,0,1-.836,2.738c-.444.114-.361.408-.429.694h-.967c-.214-.174.082-.687-.407-.587-.123.025-.188.333-.313.575Zm.321-1.759c.853,0,1.661.016,2.468-.009a.475.475,0,0,0,.458-.514.489.489,0,0,0-.47-.545c-.744-.028-1.49-.016-2.234,0a.3.3,0,0,0-.211.2C365.212,160.613,365.228,160.89,365.228,161.205Zm.015-2.235c.694,0,1.342.012,1.989-.005a.48.48,0,0,0,.5-.508c-.015-.193-.22-.519-.36-.53-.706-.054-1.418-.025-2.132-.025Z" transform="translate(-61.633 -87.253)"/></g><g class="b"><rect class="c" width="24" height="24"/><rect class="d" x="0.5" y="0.5" width="23" height="23"/></g></svg>