<svg xmlns="http://www.w3.org/2000/svg" width="24" height="24" viewBox="0 0 24 24"><defs><style>.a{fill:#fff;stroke:#707070;opacity:0;}.b{fill:#0898f1;}.c{stroke:none;}.d{fill:none;}</style></defs><g class="a"><rect class="c" width="24" height="24"/><rect class="d" x="0.5" y="0.5" width="23" height="23"/></g><g transform="translate(-253.436 -4915)"><g transform="translate(258.437 4917)"><path class="b" d="M1771.169-577.707c0,2.695-.027,5.39.011,8.084a2.292,2.292,0,0,1-2.423,2.424c-2.973-.054-5.948-.015-8.922-.017a2.162,2.162,0,0,1-2.369-2.364c0-5.417,0-9.8,0-15.217a2.162,2.162,0,0,1,2.367-2.366q4.482,0,8.964,0a2.169,2.169,0,0,1,2.371,2.365C1771.171-582.089,1771.169-580.415,1771.169-577.707Zm-1.359,4.422c.008-.1.017-.168.017-.236,0-4.131,0-7.226,0-11.357a.832.832,0,0,0-.954-.946q-4.543,0-9.086,0c-.691,0-.983.3-.983,1,0,4.061,0,7.087,0,11.148,0,.122.014.244.023.387ZM1758.8-571.9c0,.814,0,1.58,0,2.346a1.9,1.9,0,0,0,0,.209.812.812,0,0,0,.856.792c.293.009.587,0,.88,0q4.147,0,8.294,0c.582,0,.936-.219.961-.708.044-.872.013-1.748.013-2.641Z" transform="translate(-1757.465 587.164)"/><path class="b" d="M1807.956-563.62c-.251,0-.5.008-.753,0a.643.643,0,0,1-.673-.6.638.638,0,0,1,.6-.72,15.415,15.415,0,0,1,1.672,0,.633.633,0,0,1,.591.686.637.637,0,0,1-.641.633C1808.486-563.608,1808.221-563.62,1807.956-563.62Z" transform="translate(-1801.11 567.417)"/><path class="b" d="M1813.39-429.845a.688.688,0,0,1,.685-.7.689.689,0,0,1,.664.676.673.673,0,0,1-.685.688A.672.672,0,0,1,1813.39-429.845Z" transform="translate(-1807.214 447.836)"/></g></g></svg>