<svg xmlns="http://www.w3.org/2000/svg" width="24" height="24" viewBox="0 0 24 24"><defs><style>.a{fill:#fff;stroke:#707070;opacity:0;}.b{fill:#0898f1;}.c{stroke:none;}.d{fill:none;}</style></defs><g class="a"><rect class="c" width="24" height="24"/><rect class="d" x="0.5" y="0.5" width="23" height="23"/></g><g transform="translate(-998.814 876.49)"><path class="b" d="M1010.333-855.251c-.828,0-1.656,0-2.484,0a1.285,1.285,0,0,1-1.371-1.38c0-.615-.042-1.233.009-1.843a3.754,3.754,0,0,0-.507-2.131c-.668-1.26-1.276-2.551-1.927-3.82a.841.841,0,0,1,.046-.932q2.8-4.338,5.589-8.684c.387-.6.888-.594,1.279.014,1.842,2.861,3.675,5.727,5.527,8.582a.989.989,0,0,1,.06,1.111c-.761,1.482-1.5,2.976-2.235,4.472a1.473,1.473,0,0,0-.144.606c-.015.868,0,1.737-.005,2.605a1.292,1.292,0,0,1-1.392,1.4C1011.963-855.249,1011.148-855.252,1010.333-855.251Zm-.651-16.325a.891.891,0,0,0-.12.1q-2.078,3.23-4.147,6.466a.513.513,0,0,0,.006.422q.964,1.976,1.964,3.933a.565.565,0,0,0,.41.262q2.523.026,5.046,0a.564.564,0,0,0,.413-.256c.665-1.291,1.3-2.6,1.962-3.89a.5.5,0,0,0-.036-.574c-1.334-2.059-2.656-4.127-3.982-6.191-.053-.082-.115-.159-.236-.322V-867c0,.053-.021.123,0,.157a1.071,1.071,0,0,0,.273.288,1.953,1.953,0,0,1,.979,2.029,1.938,1.938,0,0,1-1.775,1.581,1.915,1.915,0,0,1-1.967-1.383,1.929,1.929,0,0,1,.92-2.225c.117-.068.27-.21.271-.32C1009.688-868.42,1009.682-869.966,1009.682-871.576Zm-1.907,15.015h5.079v-2.516h-5.079Zm3.187-8.3a.646.646,0,0,0-.623-.647.646.646,0,0,0-.656.614.647.647,0,0,0,.643.666A.645.645,0,0,0,1010.962-864.864Z"/></g></svg>