<svg xmlns="http://www.w3.org/2000/svg" width="24" height="24" viewBox="0 0 24 24"><defs><style>.a{fill:#fff;stroke:#707070;opacity:0;}.b{fill:#0898f1;}.c{stroke:none;}.d{fill:none;}</style></defs><g class="a"><rect class="c" width="24" height="24"/><rect class="d" x="0.5" y="0.5" width="23" height="23"/></g><g transform="translate(-1039.943 428.938)"><path class="b" d="M1052.346-410.552c-1.776,0-3.552.007-5.328,0a5,5,0,0,1-5.074-5.168,5.059,5.059,0,0,1,4.185-4.8.732.732,0,0,0,.433-.3,6.244,6.244,0,0,1,6.2-3.048,6.109,6.109,0,0,1,5.262,4.656.49.49,0,0,0,.473.4,4.14,4.14,0,0,1,3.508,4.283,4.185,4.185,0,0,1-3.906,3.974c-.065,0-.13.006-.2.006h-5.563Zm.035-1.663c1.841,0,3.682.024,5.522-.009a2.351,2.351,0,0,0,2.241-1.555,2.357,2.357,0,0,0-.492-2.646,2.765,2.765,0,0,0-2.128-.812c-.785-.019-.784-.029-.929-.782-.025-.128-.052-.255-.077-.383a4.608,4.608,0,0,0-6.024-3.6,4.721,4.721,0,0,0-2.812,2.666.556.556,0,0,1-.578.406,3.265,3.265,0,0,0-.737.083,3.343,3.343,0,0,0-2.752,3.478,3.346,3.346,0,0,0,3.361,3.157C1048.777-412.208,1050.579-412.214,1052.38-412.215Z" transform="translate(0 0)"/></g></svg>