<svg xmlns="http://www.w3.org/2000/svg" width="24" height="24" viewBox="0 0 24 24"><defs><style>.a{fill:#fff;stroke:#707070;opacity:0;}.b{fill:#0898f1;stroke:rgba(0,0,0,0);stroke-miterlimit:10;}.c{stroke:none;}.d{fill:none;}</style></defs><g class="a"><rect class="c" width="24" height="24"/><rect class="d" x="0.5" y="0.5" width="23" height="23"/></g><path class="b" d="M-10598-4901a1.019,1.019,0,0,0,.327-.067A1.019,1.019,0,0,1-10598-4901Zm-10,0h-9a.964.964,0,0,1-.482-.144,1.016,1.016,0,0,1-.439-.469,1.047,1.047,0,0,1-.077-.389v-5a.977.977,0,0,1,.074-.365,1,1,0,0,1,.925-.634h2v0h1a.978.978,0,0,1,.5.152.988.988,0,0,1,.5.848v4.5h4.5v-8h-5v2.651a.978.978,0,0,0-.5-.152h-1v-3a.963.963,0,0,1,.075-.365.963.963,0,0,0-.075.365.963.963,0,0,1,.075-.365,1,1,0,0,1,.924-.634h2v0h4a1,1,0,0,1,1,1v8.5h8.5v-11h-12v1.5h2.5a1,1,0,0,1,1,1,1,1,0,0,0-1-1h-4v-2c0-.014,0-.028,0-.042,0,.014,0,.028,0,.042,0-.014,0-.028,0-.042s0-.014,0-.021,0-.009,0-.014a.945.945,0,0,1,.071-.289.993.993,0,0,1,.925-.634h13a1,1,0,0,1,1,1v12a1,1,0,0,1-.675.935,1.019,1.019,0,0,1-.327.067Zm0,0h0Zm-2.5-1h0Zm-3,0h0Zm.5-.5h0Zm-3.5,0h2v-4h-2Zm4.5-11.564s0-.009,0-.014S-10612-4914.068-10612-4914.063Zm-6,12.063v-5a.977.977,0,0,1,.074-.365.977.977,0,0,0-.074.365v5Zm4.5-5.847a.982.982,0,0,1,.5.848A.988.988,0,0,0-10613.5-4907.848Zm-3.5-.152h0a1,1,0,0,0-.925.634A1,1,0,0,1-10617-4908Zm3,0h0a.978.978,0,0,1,.5.152A.978.978,0,0,0-10614-4908Zm0-4h0a1,1,0,0,0-.924.634A1,1,0,0,1-10614-4912Zm16-3h-13a.993.993,0,0,0-.925.634.993.993,0,0,1,.925-.634h13a1,1,0,0,1,1,1A1,1,0,0,0-10598-4915Z" transform="translate(10620 4920)"/></svg>