<svg xmlns="http://www.w3.org/2000/svg" width="24" height="24" viewBox="0 0 24 24"><defs><style>.a{fill:#fff;stroke:#707070;opacity:0;}.b,.d{fill:none;}.b{stroke:#0898f1;stroke-linecap:round;stroke-linejoin:round;stroke-width:1.5px;}.c{stroke:none;}</style></defs><g class="a"><rect class="c" width="24" height="24"/><rect class="d" x="0.5" y="0.5" width="23" height="23"/></g><path class="b" d="M18.336,7.189q-.052-.225-.114-.445a9.219,9.219,0,0,0-.378-1.072q-.088-.208-.186-.411-.049-.1-.1-.2A9.286,9.286,0,0,0,9.288,0h0A9.286,9.286,0,0,0,1.017,5.059q-.051.1-.1.2-.147.3-.272.621Q.479,6.3.353,6.744q-.063.22-.114.445a9.367,9.367,0,0,0,0,4.195q.052.225.114.445.125.441.292.863.125.316.272.621.049.1.1.2a9.286,9.286,0,0,0,8.271,5.059h0a9.286,9.286,0,0,0,8.271-5.059q.051-.1.1-.2.1-.2.186-.411a9.208,9.208,0,0,0,.378-1.072q.063-.22.114-.445a9.366,9.366,0,0,0,0-4.195Zm-4.883,2.1L9.288,14.758,5.121,9.287,9.288,3.815Z" transform="translate(2.499 2.5)"/></svg>