<svg xmlns="http://www.w3.org/2000/svg" width="24" height="24" viewBox="0 0 24 24"><defs><style>.a{fill:#fff;stroke:#707070;opacity:0;}.b{fill:#0898f1;}.c{stroke:none;}.d{fill:none;}</style></defs><g class="a"><rect class="c" width="24" height="24"/><rect class="d" x="0.5" y="0.5" width="23" height="23"/></g><g transform="translate(-948.353 -259.697)"><path class="b" d="M1075.382,392.429h-5.794a1.833,1.833,0,1,0-.048,1.5h5.842a.752.752,0,1,0,0-1.5Z" transform="translate(-105.768 -118.576)"/><path class="b" d="M958.824,406.609a.752.752,0,0,0-.752-.752H952.1a.752.752,0,0,0,0,1.5h5.968A.752.752,0,0,0,958.824,406.609Z" transform="translate(0 -132.005)"/><path class="b" d="M952.1,327.532H957.9a1.833,1.833,0,1,0,.048-1.5H952.1a.752.752,0,0,0,0,1.5Z" transform="translate(0 -57.448)"/><path class="b" d="M999.517,265.229h6.574a1.834,1.834,0,1,0,.048-1.5h-6.621a.752.752,0,0,0,0,1.5Z" transform="translate(-43.717)"/><path class="b" d="M1017.808,453.168h-6.574a1.833,1.833,0,1,0-.048,1.5h6.621a.752.752,0,1,0,0-1.5Z" transform="translate(-51.962 -174.582)"/><path class="b" d="M1099.471,338.954a.752.752,0,0,0,.752.752h5.968a.752.752,0,0,0,0-1.5h-5.968A.752.752,0,0,0,1099.471,338.954Z" transform="translate(-136.576 -69.621)"/></g></svg>