<svg xmlns="http://www.w3.org/2000/svg" width="24" height="24" viewBox="0 0 24 24"><defs><style>.a{fill:#fff;stroke:#707070;opacity:0;}.b,.d{fill:none;}.b{stroke:#0898f1;stroke-miterlimit:10;stroke-width:1.5px;}.c{stroke:none;}</style></defs><g class="a"><rect class="c" width="24" height="24"/><rect class="d" x="0.5" y="0.5" width="23" height="23"/></g><path class="b" d="M2266.761-1087.884l1.216,2.464a1.264,1.264,0,0,0,.952.691l2.719.4a1.264,1.264,0,0,1,.7,2.156l-1.968,1.918a1.265,1.265,0,0,0-.364,1.119l.464,2.708a1.264,1.264,0,0,1-1.833,1.332l-2.432-1.279a1.264,1.264,0,0,0-1.176,0l-2.432,1.279a1.264,1.264,0,0,1-1.834-1.332l.465-2.708a1.265,1.265,0,0,0-.364-1.119l-1.968-1.918a1.264,1.264,0,0,1,.7-2.156l2.719-.4a1.264,1.264,0,0,0,.952-.691l1.216-2.464A1.264,1.264,0,0,1,2266.761-1087.884Z" transform="translate(-2254.023 1094.088)"/></svg>