<svg xmlns="http://www.w3.org/2000/svg" width="24" height="24" viewBox="0 0 24 24"><defs><style>.a{fill:#fff;stroke:#707070;opacity:0;}.b{fill:#0898f1;}.c{stroke:none;}.d{fill:none;}</style></defs><g class="a"><rect class="c" width="24" height="24"/><rect class="d" x="0.5" y="0.5" width="23" height="23"/></g><g transform="translate(-891.898 -4652.963)"><g transform="translate(894.898 4655.963)"><path class="b" d="M1460.242-512.088a2.4,2.4,0,0,1,.379-.473c.507-.387,1.033-.751,1.559-1.112a.423.423,0,0,0,.213-.452c-.035-.34.011-.687-.016-1.029a.624.624,0,0,0-.191-.411c-.5-.381-1.018-.729-1.526-1.094a.633.633,0,0,1-.213-1q.984-1.684,1.976-3.364c.277-.469.5-.538,1-.317.573.25,1.139.516,1.719.749a.591.591,0,0,0,.428-.035,9.378,9.378,0,0,0,.99-.563.523.523,0,0,0,.217-.322c.087-.645.146-1.293.217-1.94a.605.605,0,0,1,.679-.612q2.046-.006,4.092,0a.613.613,0,0,1,.695.635c.07.647.131,1.294.216,1.939a.487.487,0,0,0,.2.295,5.347,5.347,0,0,1,.638.36.967.967,0,0,0,1.255.062c.43-.232.89-.411,1.341-.6a.6.6,0,0,1,.874.274q1.042,1.757,2.066,3.524a.582.582,0,0,1-.186.866q-.786.579-1.592,1.129a.418.418,0,0,0-.214.45,5.191,5.191,0,0,1,0,1.029.394.394,0,0,0,.2.421c.517.353,1.026.718,1.534,1.084a.633.633,0,0,1,.216,1q-.991,1.7-1.992,3.4a.628.628,0,0,1-.954.3c-.585-.253-1.163-.524-1.754-.762a.6.6,0,0,0-.425.032,6.261,6.261,0,0,1-.668.382c-.489.149-.594.489-.615.938-.023.514-.092,1.027-.148,1.539a.591.591,0,0,1-.634.579q-2.1.009-4.2,0a.589.589,0,0,1-.623-.592c-.071-.634-.152-1.268-.2-1.9a.442.442,0,0,0-.313-.429,2.367,2.367,0,0,1-.612-.333.849.849,0,0,0-1.091-.076,14.986,14.986,0,0,1-1.441.649.6.6,0,0,1-.875-.274q-1.042-1.756-2.066-3.523A3.3,3.3,0,0,1,1460.242-512.088Zm15.93-7.993c-.6.268-1.194.529-1.785.8a.811.811,0,0,1-.859-.09,12.848,12.848,0,0,0-1.5-.854.818.818,0,0,1-.533-.755c-.034-.539-.107-1.075-.149-1.614-.016-.2-.092-.274-.3-.272q-1.327.013-2.655,0c-.215,0-.269.093-.284.284-.044.551-.113,1.1-.154,1.65a.788.788,0,0,1-.506.7,13.67,13.67,0,0,0-1.5.848.846.846,0,0,1-.923.086c-.574-.271-1.159-.519-1.758-.785L1461.7-517.4c.565.4,1.094.777,1.626,1.15a.747.747,0,0,1,.324.758,8.5,8.5,0,0,0-.01,1.652.84.84,0,0,1-.4.9c-.517.348-1.019.717-1.545,1.09l1.576,2.683c.631-.282,1.226-.542,1.817-.812a.79.79,0,0,1,.826.086c.5.322,1.031.613,1.563.885a.772.772,0,0,1,.478.678c.042.551.114,1.1.153,1.65.016.22.095.294.315.292q1.309-.015,2.618,0c.232,0,.291-.095.307-.3.042-.551.108-1.1.152-1.65a.769.769,0,0,1,.486-.672,13.4,13.4,0,0,0,1.5-.845.873.873,0,0,1,.957-.09c.572.269,1.154.517,1.742.778l1.571-2.681c-.551-.391-1.077-.771-1.611-1.141a.763.763,0,0,1-.337-.786,8.485,8.485,0,0,0,.005-1.652.818.818,0,0,1,.384-.87c.524-.355,1.034-.729,1.559-1.1-.507-.866-.991-1.691-1.475-2.515C1476.256-519.973,1476.216-520.019,1476.172-520.081Z" transform="translate(-1460.242 524.067)"/><g transform="translate(4.811 4.782)"><path class="b" d="M1509.025-470.894a4.662,4.662,0,0,1-4.656-4.656,4.662,4.662,0,0,1,4.656-4.656,4.662,4.662,0,0,1,4.656,4.656A4.662,4.662,0,0,1,1509.025-470.894Zm0-8.114a3.461,3.461,0,0,0-3.457,3.457,3.461,3.461,0,0,0,3.457,3.457,3.461,3.461,0,0,0,3.457-3.457A3.461,3.461,0,0,0,1509.025-479.008Z" transform="translate(-1504.369 480.207)"/></g></g></g></svg>