<svg xmlns="http://www.w3.org/2000/svg" width="24" height="24" viewBox="0 0 24 24"><defs><style>.a{fill:#fff;stroke:#707070;opacity:0;}.b{fill:#0898f1;}.c{stroke:none;}.d{fill:none;}</style></defs><g class="a"><rect class="c" width="24" height="24"/><rect class="d" x="0.5" y="0.5" width="23" height="23"/></g><g transform="translate(-2208.232 782.324)"><path class="b" d="M2216.442-767.816c0,1.535.006,3.008,0,4.481a1.949,1.949,0,0,1-1.359,1.868,1.946,1.946,0,0,1-2.53-1.854c-.012-1.555,0-3.111-.013-4.666a2.081,2.081,0,0,0-.208-.613,4.87,4.87,0,0,1-.411-1.2c-.064-.875-.027-1.757-.018-2.636a1.871,1.871,0,0,1,1.941-1.913,9.729,9.729,0,0,0,4.965-1c1.049-.491,2.152-.867,3.222-1.313a.78.78,0,0,0,.381-.357,1.992,1.992,0,0,1,2.154-1.226,1.958,1.958,0,0,1,1.619,1.99c0,.824,0,1.648,0,2.534.244,0,.467-.006.691,0a1.944,1.944,0,0,1,1.905,1.927q.012.649,0,1.3a1.943,1.943,0,0,1-1.99,1.966c-.186,0-.373,0-.608,0,0,.9.007,1.757,0,2.618a1.949,1.949,0,0,1-1.347,1.836,1.95,1.95,0,0,1-2.191-.735.223.223,0,0,1-.043-.069c-.15-.615-.671-.767-1.172-.964-1.52-.6-3.034-1.206-4.55-1.81C2216.756-767.7,2216.632-767.743,2216.442-767.816Zm8.445-3.261c0-1.717,0-3.434,0-5.151a.661.661,0,0,0-.557-.731.66.66,0,0,0-.715.528c-.057.5-.374.7-.789.861-1.782.7-3.555,1.426-5.337,2.126a.518.518,0,0,0-.405.577c.026,1.176.021,2.352,0,3.528a.469.469,0,0,0,.358.522c1.857.732,3.705,1.485,5.561,2.22a.786.786,0,0,1,.594.726.6.6,0,0,0,.607.592c.407.034.682-.277.683-.769Q2224.891-768.563,2224.887-771.077Zm-9.111-1.989c-.678,0-1.323-.014-1.969.005a.616.616,0,0,0-.607.675q-.016,1.276,0,2.552a.6.6,0,0,0,.587.651c.656.031,1.314.009,1.99.009Zm-1.931,5.214c0,1.493,0,2.937,0,4.381,0,.51.25.8.659.793s.639-.3.639-.814q0-2,0-4.009c0-.116-.015-.232-.023-.351Zm12.363-4.566v2.6c.182,0,.341,0,.5,0,.529-.008.769-.24.776-.759,0-.391.011-.782,0-1.173a.645.645,0,0,0-.665-.665C2226.629-772.427,2226.44-772.419,2226.208-772.419Z"/></g></svg>