<svg xmlns="http://www.w3.org/2000/svg" width="24" height="24" viewBox="0 0 24 24"><defs><style>.a{fill:#fff;stroke:#707070;opacity:0;}.b{fill:#0898f1;}.c{stroke:none;}.d{fill:none;}</style></defs><g class="a"><rect class="c" width="24" height="24"/><rect class="d" x="0.5" y="0.5" width="23" height="23"/></g><g transform="translate(-140.221 -282.767)"><path class="b" d="M220.544,359.539c0-1.029,0-2.057,0-3.086,0-.691.29-.979.983-.982.961,0,1.923-.03,2.881.016a1.6,1.6,0,0,1,.883.368,10.193,10.193,0,0,1,1.32,1.322,1.655,1.655,0,0,1,.389.925c.041,1.5.023,3,.019,4.5,0,.658-.3.961-.953.963q-2.3.008-4.6,0a.822.822,0,0,1-.921-.942C220.54,361.6,220.544,360.567,220.544,359.539Zm4.859,2.393c0-1.13,0-2.205,0-3.281,0-.4-.864-1.526-1.255-1.55-.647-.039-1.3-.011-1.954-.011v4.841Z" transform="translate(-72.06 -64.758)"/><path class="b" d="M143.211,373.165c1.206,0,2.33,0,3.455,0,.635,0,1,.3,1,.809s-.366.806-1,.808c-1.124,0-2.248,0-3.446,0,.115.16.2.257.261.364a.757.757,0,0,1-.139,1.047.707.707,0,0,1-1.011.031q-.911-.836-1.752-1.747a.754.754,0,0,1,.1-1.128c.478-.5.97-.984,1.463-1.467a.822.822,0,0,1,1.208-.134c.359.317.361.737.008,1.211C143.325,373,143.3,373.04,143.211,373.165Z" transform="translate(0 -79.213)"/><path class="b" d="M297.505,374.641c-1.241,0-2.4.03-3.555-.021a1.132,1.132,0,0,1-.793-.468.879.879,0,0,1,.1-.811,1.157,1.157,0,0,1,.793-.308c1.124-.033,2.249-.014,3.444-.014-.111-.155-.19-.253-.256-.359a.754.754,0,0,1,.136-1.047.727.727,0,0,1,1.053-.007q.868.809,1.68,1.677a.768.768,0,0,1-.064,1.168c-.478.5-.97.983-1.463,1.467a.825.825,0,0,1-1.208.138c-.36-.315-.364-.74-.012-1.211C297.387,374.806,297.415,374.766,297.505,374.641Z" transform="translate(-137.27 -79.069)"/><path class="b" d="M231.774,286.253c0,.931,0,1.787,0,2.642,0,.641-.3,1-.81,1s-.8-.363-.8-1.007c0-.854,0-1.708,0-2.56-.069,0-.109-.013-.128,0-.539.41-.96.427-1.29.048s-.261-.8.211-1.28c.451-.454.9-.912,1.359-1.357a.815.815,0,0,1,1.318,0c.436.421.86.855,1.288,1.285.533.535.618.961.272,1.353S232.442,286.741,231.774,286.253Z" transform="translate(-79.244 0)"/><path class="b" d="M230.154,447.282c0-.941,0-1.792,0-2.644,0-.646.287-1.01.792-1.019.524-.01.821.362.823,1.039,0,.841,0,1.683,0,2.593.161-.112.272-.2.393-.27a.753.753,0,0,1,1.008.145.687.687,0,0,1,.078.967,24.966,24.966,0,0,1-1.854,1.855.727.727,0,0,1-1.045-.13q-.758-.743-1.5-1.5a.811.811,0,0,1-.122-1.17c.31-.367.737-.378,1.208-.032C229.986,447.15,230.033,447.188,230.154,447.282Z" transform="translate(-79.241 -143.993)"/></g><circle class="b" cx="1" cy="1" r="1" transform="translate(4 4)"/><circle class="b" cx="1" cy="1" r="1" transform="translate(4 17)"/><circle class="b" cx="1" cy="1" r="1" transform="translate(17 4)"/><circle class="b" cx="1" cy="1" r="1" transform="translate(17 17)"/></svg>