<svg xmlns="http://www.w3.org/2000/svg" width="24" height="24" viewBox="0 0 24 24"><defs><style>.a{fill:#fff;stroke:#707070;opacity:0;}.b{fill:#0898f1;}.c{stroke:none;}.d{fill:none;}</style></defs><g class="a"><rect class="c" width="24" height="24"/><rect class="d" x="0.5" y="0.5" width="23" height="23"/></g><g transform="translate(-630.458 -71.753)"><path class="b" d="M635.053,102.589c-.376.393-.744.8-1.132,1.176a.816.816,0,1,1-1.146-1.141q1.276-1.3,2.573-2.578a.84.84,0,0,1,1.308.011q1.279,1.261,2.539,2.54a.806.806,0,0,1,.09,1.223.8.8,0,0,1-1.221-.065c-.387-.38-.751-.782-1.22-1.274-.024.3-.045.45-.045.595q0,2.873,0,5.746a2.114,2.114,0,0,0,2.333,2.317q4.027.008,8.055,0c.425,0,.793.078.955.522a.8.8,0,0,1-.847,1.077c-1.761.014-3.523.008-5.284.009-.992,0-1.984.011-2.976,0a3.632,3.632,0,0,1-3.835-3.829c-.019-1.813,0-3.626,0-5.438q0-.4,0-.809Z" transform="translate(0 -21.524)"/><path class="b" d="M694.581,85.879v-3.93q0-1.077,0-2.154a2.15,2.15,0,0,0-2.421-2.436q-3.9,0-7.8,0c-.12,0-.24,0-.359,0a.8.8,0,1,1,.007-1.591c1.214-.016,2.427-.011,3.641-.011,1.539,0,3.077,0,4.616,0a3.676,3.676,0,0,1,3.917,3.91q-.006,2.923,0,5.847c0,.114.012.228.018.342l.154.111c.345-.39.676-.794,1.039-1.167.443-.455.889-.491,1.257-.139s.342.827-.123,1.3q-1.209,1.22-2.43,2.43a.877.877,0,0,1-1.453-.014q-1.219-1.21-2.43-2.43c-.441-.445-.48-.894-.126-1.259s.817-.333,1.26.1c.368.356.731.717,1.1,1.075C694.459,85.86,694.482,85.858,694.581,85.879Z" transform="translate(-45.528)"/></g></svg>