<svg xmlns="http://www.w3.org/2000/svg" width="24" height="24" viewBox="0 0 24 24"><defs><style>.a{fill:#fff;stroke:#707070;opacity:0;}.b{fill:#0898f1;stroke:#0898f1;stroke-width:0.11px;}.c{stroke:none;}.d{fill:none;}</style></defs><g class="a"><rect class="c" width="24" height="24"/><rect class="d" x="0.5" y="0.5" width="23" height="23"/></g><g transform="translate(-921.578 100.841)"><path class="b" d="M923.337-89.094a9.991,9.991,0,0,1,10.009-9.959,9.993,9.993,0,0,1,9.946,10.021,10,10,0,0,1-10.028,9.94A10,10,0,0,1,923.337-89.094Zm18.709.016a8.743,8.743,0,0,0-8.718-8.729,8.742,8.742,0,0,0-8.746,8.74,8.744,8.744,0,0,0,8.718,8.729A8.742,8.742,0,0,0,942.046-89.079Z" transform="translate(0 0)"/><path class="b" d="M989.372-59.433c-.337-.1-.636-.175-.93-.27a.6.6,0,0,1-.452-.744.6.6,0,0,1,.78-.443c.575.142,1.145.3,1.749.464.128-.475.246-.923.37-1.37.13-.471.427-.669.818-.554.341.1.487.424.381.851-.112.451-.228.9-.354,1.4l.842.248c.125-.477.24-.926.36-1.373s.415-.663.778-.579.543.436.426.9-.233.9-.349,1.348A2.635,2.635,0,0,1,994.353-55a2.591,2.591,0,0,1,.091,3.268c-.612.883-1.52,1.132-2.9.837-.109.4-.217.811-.328,1.217a1.844,1.844,0,0,1-.114.37.59.59,0,0,1-.711.337.6.6,0,0,1-.446-.717c.08-.393.193-.78.289-1.17.03-.122.055-.246.087-.393l-.833-.224c-.13.484-.248.932-.37,1.378s-.419.655-.782.553-.526-.414-.414-.863.229-.9.354-1.4c-.568-.162-1.133-.3-1.675-.491a.924.924,0,0,1-.515-.451.593.593,0,0,1,.72-.762c.3.066.6.158.954.253Zm-.4,6.471a.686.686,0,0,0,.127.075c1.022.283,2.043.571,3.068.844a1.174,1.174,0,0,0,1.473-.8,1.246,1.246,0,0,0-.714-1.636c-1.084-.337-2.186-.618-3.312-.931Zm1.6-6.154-.642,2.5c.946.26,1.817.507,2.693.737a1.185,1.185,0,0,0,1.46-.77,1.255,1.255,0,0,0-.647-1.639C992.51-58.6,991.556-58.838,990.574-59.116Z" transform="translate(-57.822 -33.813)"/></g></svg>