<svg xmlns="http://www.w3.org/2000/svg" xmlns:xlink="http://www.w3.org/1999/xlink" width="416" height="416" viewBox="0 0 416 416"><defs><style>.a{fill:#fff;stroke:#707070;}.b{clip-path:url(#a);}.c{opacity:0.22;}.d,.e,.f,.g,.h,.i,.j,.k,.l,.n{fill:none;}.d{stroke:#464657;}.d,.e,.f{stroke-width:2px;}.d,.j{opacity:0.7;}.e,.f,.g{stroke:#3c3c4b;}.f{opacity:0.4;}.g{stroke-width:7px;}.g,.l{opacity:0.2;}.h{stroke:rgba(80,80,96,0.61);}.i,.k,.l{stroke:#505060;}.j{stroke:#8d8db7;}.k{opacity:0.5;}.m{stroke:none;}</style><clipPath id="a"><rect class="a" width="416" height="416" transform="translate(952 5392)"/></clipPath></defs><g class="b" transform="translate(-952 -5392)"><g class="c" transform="matrix(-0.999, 0.052, -0.052, -0.999, 1892.459, 5720.245)"><g class="d" transform="matrix(0.799, -0.602, 0.602, 0.799, 401.424, 103.729)"><rect class="m" width="199.413" height="199.413"/><rect class="n" x="1" y="1" width="197.413" height="197.413"/></g><g class="e" transform="translate(766.575 33.489) rotate(100)"><rect class="m" width="46.216" height="46.216"/><rect class="n" x="1" y="1" width="44.216" height="44.216"/></g><g class="f" transform="translate(772.193 195.399) rotate(172)"><rect class="m" width="147.019" height="147.019"/><rect class="n" x="1" y="1" width="145.019" height="145.019"/></g><g class="g" transform="translate(508.162 195.008) rotate(45)"><rect class="m" width="111.03" height="111.03"/><rect class="n" x="3.5" y="3.5" width="104.03" height="104.03"/></g><g class="h" transform="matrix(0.719, 0.695, -0.695, 0.719, 409.448, 196.003)"><rect class="m" width="28.086" height="28.086"/><rect class="n" x="0.5" y="0.5" width="27.086" height="27.086"/></g><g class="i" transform="matrix(-0.819, 0.574, -0.574, -0.819, 620.306, 274.106)"><rect class="m" width="4.784" height="4.784"/><rect class="n" x="0.5" y="0.5" width="3.784" height="3.784"/></g><g class="j" transform="translate(550.319 13.92) rotate(16)"><rect class="m" width="105.235" height="105.235"/><rect class="n" x="0.5" y="0.5" width="104.235" height="104.235"/></g><g class="k" transform="translate(554.222 -38.731) rotate(170)"><rect class="m" width="39.76" height="39.76"/><rect class="n" x="0.5" y="0.5" width="38.76" height="38.76"/></g><g class="i" transform="translate(578.192 155.132) rotate(170)"><rect class="m" width="36.316" height="36.316"/><rect class="n" x="0.5" y="0.5" width="35.316" height="35.316"/></g><g class="l" transform="matrix(0.719, 0.695, -0.695, 0.719, 282.436, -64.196)"><rect class="m" width="13.21" height="13.21"/><rect class="n" x="0.5" y="0.5" width="12.21" height="12.21"/></g><g class="f" transform="translate(410.282 65.823) rotate(-72)"><rect class="m" width="61.593" height="61.593"/><rect class="n" x="1" y="1" width="59.593" height="59.593"/></g><g class="f" transform="matrix(0.719, 0.695, -0.695, 0.719, 839.893, -44.483)"><rect class="m" width="74.189" height="74.189"/><rect class="n" x="1" y="1" width="72.189" height="72.189"/></g><g class="i" transform="translate(619.811 -18.439) rotate(168)"><rect class="m" width="4.784" height="4.784"/><rect class="n" x="0.5" y="0.5" width="3.784" height="3.784"/></g></g></g></svg>